<?xml version="1.0" encoding="UTF-8" standalone="no"?>
<svg width="840px" height="500px" viewBox="0 0 840 500" version="1.1" xmlns="http://www.w3.org/2000/svg" xmlns:xlink="http://www.w3.org/1999/xlink" xmlns:sketch="http://www.bohemiancoding.com/sketch/ns">
    <!-- Generator: Sketch 3.1 (8751) - http://www.bohemiancoding.com/sketch -->
    <title>gs-goa2</title>
    <desc>Created with Sketch.</desc>
    <defs>
        <filter x="-50%" y="-50%" width="200%" height="200%" filterUnits="objectBoundingBox" id="filter-1">
            <feMorphology radius="1" in="SourceAlpha" operator="dilate" result="shadowSpreadOuter1"></feMorphology>
            <feOffset dx="0" dy="1" in="shadowSpreadOuter1" result="shadowOffsetOuter1"></feOffset>
            <feGaussianBlur stdDeviation="2" in="shadowOffsetOuter1" result="shadowBlurOuter1"></feGaussianBlur>
            <feColorMatrix values="0 0 0 0 0   0 0 0 0 0   0 0 0 0 0  0 0 0 0.21 0" in="shadowBlurOuter1" type="matrix" result="shadowMatrixOuter1"></feColorMatrix>
            <feMerge>
                <feMergeNode in="shadowMatrixOuter1"></feMergeNode>
                <feMergeNode in="SourceGraphic"></feMergeNode>
            </feMerge>
        </filter>
    </defs>
    <g id="Page-1" stroke="none" stroke-width="1" fill="none" fill-rule="evenodd" sketch:type="MSPage">
        <g id="gs-goa2" sketch:type="MSArtboardGroup">
            <rect id="Rectangle-25" fill="#FFFFFF" sketch:type="MSShapeGroup" x="133" y="66" width="581" height="359" rx="6"></rect>
            <circle id="Oval-1" fill="#B9B9B9" sketch:type="MSShapeGroup" cx="87" cy="84" r="18"></circle>
            <text id="3" sketch:type="MSTextLayer" font-family="Lato" font-size="18" font-weight="normal" sketch:alignment="middle" fill="#FFFFFF">
                <tspan x="81.28" y="90">3</tspan>
            </text>
            <text id="Cuentas-en-línea" sketch:type="MSTextLayer" font-family="Lato" font-size="14" font-weight="normal" sketch:alignment="middle" fill="#333333">
                <tspan x="373.6" y="94">Cuentas en línea</tspan>
            </text>
            <rect id="Rectangle-27" fill="#EBEBEB" sketch:type="MSShapeGroup" x="133" y="109" width="580" height="314"></rect>
            <path d="M693.462155,88.000375 L697.696244,83.765934 C698.101252,83.362892 698.101252,82.7068236 697.696244,82.3037816 C697.293235,81.8987395 696.636222,81.8987395 696.233213,82.3037816 L691.999125,86.5382227 L687.765037,82.3037816 C687.361028,81.8987395 686.706015,81.8987395 686.303006,82.3037816 C685.898998,82.7068236 685.898998,83.362892 686.303006,83.765934 L690.537095,88.000375 L686.303006,92.2358162 C685.898998,92.6388582 685.898998,93.2949266 686.303006,93.6989686 C686.504011,93.8999896 686.769016,94 687.034022,94 C687.300027,94 687.563033,93.8999896 687.765037,93.6989686 L691.999125,89.4635275 L696.233213,93.6989686 C696.435217,93.8999896 696.701223,94 696.965228,94 C697.230234,94 697.494239,93.8999896 697.696244,93.6989686 C698.101252,93.2949266 698.101252,92.6388582 697.696244,92.2358162 L693.462155,88.000375" id="Close" fill="#C6C6C6" sketch:type="MSShapeGroup"></path>
            <rect id="Rectangle-4" stroke="#C6C6C6" fill="#FFFFFF" sketch:type="MSShapeGroup" x="149" y="123" width="250" height="291" rx="4"></rect>
            <path d="M135.5,109 L712.5,109" id="Line" stroke="#C6C6C6" stroke-width="2" stroke-linecap="square" sketch:type="MSShapeGroup"></path>
            <path d="M150,381.5 L397.5,381.5" id="Line" stroke="#C6C6C6" stroke-linecap="square" sketch:type="MSShapeGroup"></path>
            <rect id="Rectangle-29" stroke="#C6C6C6" sketch:type="MSShapeGroup" x="156" y="386" width="43" height="22" rx="3"></rect>
            <path d="M177.5,387.5 L177.5,407.523796" id="Line" stroke="#C6C6C6" stroke-linecap="square" sketch:type="MSShapeGroup"></path>
            <path d="M158.741526,83.765934 C159.146535,83.362892 159.146535,82.7068236 158.741526,82.3037816 C158.338518,81.8987395 157.681504,81.8987395 157.278496,82.3037816 L152.292277,87.2904156 C151.90021,87.6825154 151.904946,88.3230838 152.292277,88.7105837 L157.278496,93.6989686 C157.4805,93.8999896 157.746505,94 158.010511,94 C158.275516,94 158.539522,93.8999896 158.741526,93.6989686 C159.146535,93.2949266 159.146535,92.6388582 158.741526,92.2358162 L154.507438,88.000375 L158.741526,83.765934 Z" id="Close" fill="#C6C6C6" sketch:type="MSShapeGroup"></path>
            <rect id="Rectangle-25" stroke="#C6C6C6" stroke-width="2" sketch:type="MSShapeGroup" x="133" y="65" width="581" height="359" rx="6"></rect>
            <rect id="Rectangle-29" stroke="#C6C6C6" sketch:type="MSShapeGroup" x="143" y="75" width="26" height="26" rx="3"></rect>
            <g id="layer12" sketch:type="MSLayerGroup" transform="translate(161.999800, 392.000000)" fill="#BEBEBE">
                <path d="M4.0002,0 L4.0002,4 L0.0002,4 L0.0002,6 L4.0002,6 L4.0002,10 L6.0002,10 L6.0002,6 L10.0002,6 L10.0002,4 L6.0002,4 L6.0002,0 L4.0002,0 L4.0002,0 Z" id="rect31992" sketch:type="MSShapeGroup"></path>
            </g>
            <g id="layer12" sketch:type="MSLayerGroup" transform="translate(182.999800, 396.000000)" fill="#BEBEBE">
                <rect id="rect31984" sketch:type="MSShapeGroup" x="0" y="0" width="9.9996014" height="2.0002136"></rect>
            </g>
            <text id="No-hay-cuentas-en-lí" sketch:type="MSTextLayer" font-family="Lato" font-size="14" font-weight="normal" sketch:alignment="middle" fill="#B6B6B6">
                <tspan x="202.827" y="251">No hay cuentas en línea </tspan>
                <tspan x="235.251" y="268">configuradas</tspan>
            </text>
            <rect id="Rectangle-10" stroke="#333333" stroke-width="2" fill="#FFFFFF" sketch:type="MSShapeGroup" x="458" y="247" width="195" height="33" rx="4"></rect>
            <text id="Añadir-una-cuenta-en" sketch:type="MSTextLayer" font-family="Lato" font-size="14" font-weight="normal" fill="#333333">
                <tspan x="475" y="269">Añadir una cuenta en línea</tspan>
            </text>
            <g id="Imported-Layers-+-Imported-Layers-2" sketch:type="MSLayerGroup" transform="translate(570.000000, 269.000000)">
                <path d="M2.896,5.644 L0,5.644 M4.707,2.509 L3.258,0 M8.327,2.509 L9.775,0 M10.137,5.644 L13.034,5.644 M4.707,8.779 L3.258,11.288" id="Imported-Layers" stroke="#000000" stroke-width="1.5" stroke-linecap="round" sketch:type="MSShapeGroup"></path>
                <path d="M17.028,25.99 L23.518,26.738 L8,8 L8,32.011 L12.698,27.45 L15.145,34.31 C15.469,35.22 16.331,35.831 17.293,35.831 L17.295,35.831 C17.554,35.831 17.812,35.786 18.066,35.696 C18.972,35.37 19.58,34.504 19.58,33.541 C19.58,33.275 19.535,33.016 19.446,32.77 L17.028,25.99 L17.028,25.99 Z" id="Imported-Layers" stroke="#FFFFFF" stroke-width="2" stroke-linejoin="round" fill="#000000" filter="url(#filter-1)" sketch:type="MSShapeGroup"></path>
            </g>
        </g>
    </g>
</svg>