<?xml version="1.0" encoding="UTF-8" standalone="no"?>
<svg width="840px" height="500px" viewBox="0 0 840 500" version="1.1" xmlns="http://www.w3.org/2000/svg" xmlns:xlink="http://www.w3.org/1999/xlink" xmlns:sketch="http://www.bohemiancoding.com/sketch/ns">
    <!-- Generator: Sketch 3.1 (8751) - http://www.bohemiancoding.com/sketch -->
    <title>gs-go-online3</title>
    <desc>Created with Sketch.</desc>
    <defs>
        <path id="path-1" d="M0,0 L5,0 L5,3 L0,3"></path>
        <path id="path-3" d="M0,0 L9,0 L9,5 L0,5"></path>
        <path id="path-5" d="M0.06,0 L13.001,0 L13.001,5.003 L0.06,5.003"></path>
        <path id="path-7" d="M0,0 L3,0 L3,5 L0,5"></path>
        <path id="path-9" d="M0,0 L5,0 L5,9 L0,9"></path>
        <path id="path-11" d="M-0.003,0.006 L5,0.006 L5,13.002 L-0.003,13.002"></path>
        <filter x="-50%" y="-50%" width="200%" height="200%" filterUnits="objectBoundingBox" id="filter-13">
            <feMorphology radius="1" in="SourceAlpha" operator="dilate" result="shadowSpreadOuter1"></feMorphology>
            <feOffset dx="0" dy="1" in="shadowSpreadOuter1" result="shadowOffsetOuter1"></feOffset>
            <feGaussianBlur stdDeviation="2" in="shadowOffsetOuter1" result="shadowBlurOuter1"></feGaussianBlur>
            <feColorMatrix values="0 0 0 0 0   0 0 0 0 0   0 0 0 0 0  0 0 0 0.21 0" in="shadowBlurOuter1" type="matrix" result="shadowMatrixOuter1"></feColorMatrix>
            <feMerge>
                <feMergeNode in="shadowMatrixOuter1"></feMergeNode>
                <feMergeNode in="SourceGraphic"></feMergeNode>
            </feMerge>
        </filter>
        <path id="path-14" d="M0,0 L5,0 L5,3 L0,3"></path>
        <path id="path-16" d="M0,0 L9,0 L9,5 L0,5"></path>
        <path id="path-18" d="M0.06,0 L13.001,0 L13.001,5.003 L0.06,5.003"></path>
        <path id="path-20" d="M0,0 L5,0 L5,3 L0,3"></path>
        <path id="path-22" d="M0,0 L9,0 L9,5 L0,5"></path>
        <path id="path-24" d="M0.06,0 L13.001,0 L13.001,5.003 L0.06,5.003"></path>
        <path id="path-26" d="M0,0 L5,0 L5,3 L0,3"></path>
        <path id="path-28" d="M0,0 L9,0 L9,5 L0,5"></path>
        <path id="path-30" d="M0.06,0 L13.001,0 L13.001,5.003 L0.06,5.003"></path>
    </defs>
    <g id="Page-1" stroke="none" stroke-width="1" fill="none" fill-rule="evenodd" sketch:type="MSPage">
        <g id="gs-go-online3" sketch:type="MSArtboardGroup">
            <rect id="Rectangle-12" stroke="#C6C6C6" stroke-width="2" stroke-dasharray="3,3" fill="#F0F0F0" sketch:type="MSShapeGroup" x="218.871094" y="125.097656" width="378.042923" height="251.747539"></rect>
            <rect id="Rectangle-122" fill="#333333" sketch:type="MSShapeGroup" x="303" y="127" width="281" height="203" rx="4"></rect>
            <text id="Configuración-de-la-" sketch:type="MSTextLayer" font-family="Lato" font-size="14" font-weight="normal" fill="#666666">
                <tspan x="322" y="305">Configuración de la red</tspan>
            </text>
            <text id="Wi-Fi" sketch:type="MSTextLayer" font-family="Lato" font-size="14" font-weight="bold" fill="#FFFFFF">
                <tspan x="322" y="163">Wi-Fi</tspan>
            </text>
            <g id="Oval-1-+-2" sketch:type="MSLayerGroup" transform="translate(210.000000, 72.000000)">
                <circle id="Oval-1" fill="#B9B9B9" sketch:type="MSShapeGroup" cx="18" cy="18" r="18"></circle>
                <text id="1" sketch:type="MSTextLayer" font-family="Lato" font-size="18" font-weight="normal" sketch:alignment="middle" fill="#FFFFFF">
                    <tspan x="12.28" y="24">1</tspan>
                </text>
            </g>
            <g id="Rectangle-65-+-Group-+-Rectangle-35" sketch:type="MSLayerGroup" transform="translate(503.000000, 146.000000)">
                <rect id="Rectangle-65" fill="#43A4DE" sketch:type="MSShapeGroup" x="0" y="0" width="60" height="19" rx="8"></rect>
                <rect id="Rectangle-68" fill="#FFFFFF" sketch:type="MSShapeGroup" x="34" y="2" width="24" height="15" rx="8"></rect>
                <rect id="Rectangle-35" fill="#FFFFFF" sketch:type="MSShapeGroup" x="15" y="4" width="2" height="11"></rect>
            </g>
            <rect id="Rectangle-13" fill="#333333" sketch:type="MSShapeGroup" x="220" y="346" width="376" height="30"></rect>
            <path d="M219.340914,377 L596.819699,377 L596.819699,124.747234" id="Rectangle-14" stroke="#999999" stroke-width="2" sketch:type="MSShapeGroup"></path>
            <text id="es-2" sketch:type="MSTextLayer" font-family="Lato" font-size="15" font-weight="normal" fill="#666666">
                <tspan x="468" y="365">es</tspan>
            </text>
            <text id="14:20-2" sketch:type="MSTextLayer" font-family="Lato" font-size="14" font-weight="normal" fill="#666666">
                <tspan x="420" y="366">14:20</tspan>
            </text>
            <g id="Imported-Layers-3" sketch:type="MSLayerGroup" transform="translate(526.000000, 354.000000)">
                <g id="Group-3" transform="translate(4.000000, 6.000000)">
                    <mask id="mask-2" sketch:name="Clip 2" fill="white">
                        <use xlink:href="#path-1"></use>
                    </mask>
                    <g id="Clip-2"></g>
                    <path d="M-0.269,2.932 C-0.176,3.476 0.341,3.842 0.885,3.748 C1.1,3.712 1.297,3.605 1.446,3.446 C2.041,2.852 2.96,2.852 3.554,3.446 C3.947,3.839 4.583,3.839 4.976,3.446 C5.368,3.054 5.368,2.417 4.976,2.025 C3.617,0.666 1.383,0.666 0.025,2.025 C-0.22,2.258 -0.331,2.599 -0.269,2.932" id="Fill-1" fill="#FFFFFF" sketch:type="MSShapeGroup" mask="url(#mask-2)"></path>
                </g>
                <g id="Group-6" transform="translate(2.000000, 2.000000)">
                    <mask id="mask-4" sketch:name="Clip 5" fill="white">
                        <use xlink:href="#path-3"></use>
                    </mask>
                    <g id="Clip-5"></g>
                    <path d="M-0.407,4.725 C-0.357,5.275 0.13,5.68 0.68,5.63 C0.924,5.608 1.151,5.497 1.319,5.318 C3.084,3.552 5.916,3.552 7.681,5.318 C8.017,5.757 8.644,5.841 9.083,5.505 C9.522,5.17 9.606,4.542 9.27,4.103 L9.083,3.916 C6.553,1.386 2.447,1.386 -0.083,3.916 C-0.309,4.122 -0.428,4.42 -0.407,4.725" id="Fill-4" fill="#FFFFFF" sketch:type="MSShapeGroup" mask="url(#mask-4)"></path>
                </g>
                <path d="M8,11.5 C8,12.328 7.328,13 6.5,13 C5.672,13 5,12.328 5,11.5 C5,10.672 5.672,10 6.5,10 C7.328,10 8,10.672 8,11.5" id="Fill-7" fill="#FFFFFF" sketch:type="MSShapeGroup"></path>
                <g id="Group-10">
                    <mask id="mask-6" sketch:name="Clip 9" fill="white">
                        <use xlink:href="#path-5"></use>
                    </mask>
                    <g id="Clip-9"></g>
                    <path d="M6.502,0.974 C4.162,0.974 1.823,1.817 0.005,3.505 L0.005,5.003 L1.336,5.003 C2.783,3.643 4.642,2.964 6.502,2.964 C8.361,2.964 10.22,3.643 11.667,5.003 L13.001,5.003 L13.001,3.509 C11.183,1.819 8.842,0.974 6.502,0.974" id="Fill-8" fill="#FFFFFF" sketch:type="MSShapeGroup" mask="url(#mask-6)"></path>
                </g>
            </g>
            <g id="Imported-Layers-4" sketch:type="MSLayerGroup" transform="translate(497.000000, 354.000000)">
                <g id="Group-3" transform="translate(7.000000, 4.000000)">
                    <mask id="mask-8" sketch:name="Clip 2" fill="white">
                        <use xlink:href="#path-7"></use>
                    </mask>
                    <g id="Clip-2"></g>
                    <path d="M0.069,-0.269 C-0.476,-0.176 -0.842,0.341 -0.748,0.885 C-0.711,1.1 -0.605,1.297 -0.446,1.446 C0.148,2.04 0.148,2.96 -0.446,3.554 C-0.839,3.947 -0.839,4.583 -0.446,4.976 C-0.054,5.368 0.583,5.368 0.975,4.976 C2.334,3.617 2.334,1.383 0.975,0.025 C0.742,-0.221 0.401,-0.331 0.069,-0.269" id="Fill-1" fill="#666666" sketch:type="MSShapeGroup" mask="url(#mask-8)"></path>
                </g>
                <g id="Group-6" transform="translate(9.000000, 2.000000)">
                    <mask id="mask-10" sketch:name="Clip 5" fill="white">
                        <use xlink:href="#path-9"></use>
                    </mask>
                    <g id="Clip-5"></g>
                    <path d="M0.274,-0.407 C-0.276,-0.357 -0.681,0.13 -0.63,0.68 C-0.608,0.924 -0.497,1.151 -0.319,1.318 C1.447,3.084 1.447,5.916 -0.319,7.681 C-0.757,8.017 -0.841,8.644 -0.505,9.083 C-0.17,9.522 0.458,9.606 0.897,9.27 C0.967,9.216 1.03,9.154 1.083,9.083 C3.613,6.553 3.613,2.447 1.083,-0.083 C0.877,-0.309 0.579,-0.428 0.274,-0.407" id="Fill-4" fill="#666666" sketch:type="MSShapeGroup" mask="url(#mask-10)"></path>
                </g>
                <g id="Group-9" transform="translate(11.000000, 0.000000)">
                    <mask id="mask-12" sketch:name="Clip 8" fill="white">
                        <use xlink:href="#path-11"></use>
                    </mask>
                    <g id="Clip-8"></g>
                    <path d="M0.167,-0.499 C-0.351,-0.305 -0.613,0.271 -0.42,0.788 C-0.366,0.933 -0.279,1.063 -0.167,1.168 C2.771,4.105 2.771,8.897 -0.167,11.835 C-0.558,12.226 -0.558,12.86 -0.167,13.252 C0.225,13.643 0.859,13.643 1.25,13.252 C4.952,9.55 4.952,3.453 1.25,-0.249 C0.973,-0.543 0.545,-0.642 0.167,-0.498 L0.167,-0.499" id="Fill-7" fill="#666666" sketch:type="MSShapeGroup" mask="url(#mask-12)"></path>
                </g>
                <path d="M0,4 L2.484,4 L5.453,1 L6,1.016 L6,12.016 L5.525,12.016 L2.484,9 L0,9 L0,4" id="Fill-10" fill="#666666" sketch:type="MSShapeGroup"></path>
            </g>
            <path d="M562.316009,370.730444 C566.722125,369.68564 570,365.725615 570,361 C570,355.477153 565.522847,351 560,351 C554.477153,351 550,355.477153 550,361 C550,366.329065 554.16848,370.684528 559.422661,370.983612 L559.421,363.603 L557,363.603 L557,360.791 L559.421,360.791 L559.421,358.717 C559.421,356.311 560.886,355 563.027,355 C564.052,355 564.933,355.077 565.19,355.111 L565.19,357.626 L563.706,357.627 C562.542,357.627 562.316,358.181 562.316,358.996 L562.316,360.791 L565.092,360.791 L564.731,363.603 L562.316,363.603 L562.316009,370.730444 Z" id="Oval-6" fill="#666666" sketch:type="MSShapeGroup"></path>
            <g id="hot-corner-2" sketch:type="MSLayerGroup" transform="translate(579.000000, 359.000000)" fill="#FFFFFF">
                <path d="M17,12 C14.2,12 12,14.2 12,17 L17,17 L17,12 L17,12 Z" id="Shape" sketch:type="MSShapeGroup"></path>
                <path d="M17,1 L17,0 C7.6,0 0,7.6 0,17 L1,17 C1,8.2 8.2,1 17,1 L17,1 Z" id="Shape" sketch:type="MSShapeGroup"></path>
                <path d="M17,8 L17,7 C11.5,7 7,11.5 7,17 L8,17 C8,12 12,8 17,8 L17,8 Z" id="Shape" sketch:type="MSShapeGroup"></path>
            </g>
            <rect id="Rectangle-128" fill="#5E5E5E" sketch:type="MSShapeGroup" x="303" y="178" width="281" height="28"></rect>
            <path d="M413,208.698223 L400,193 L400,213.156712 L404.262629,209.018529 L407.101525,216.977813 C407.325422,217.606602 407.915698,218.001073 408.545612,217.999998 C408.717017,217.999998 408.892707,217.969902 409.06197,217.90971 C409.68974,217.683991 410.080758,217.091747 410.080758,216.459734 C410.080758,216.287758 410.051834,216.112557 409.99077,215.941655 L407.166873,208.02644 L413,208.698223 Z" id="Imported-Layers-5" stroke="#FFFFFF" stroke-width="2" stroke-linejoin="round" fill="#000000" filter="url(#filter-13)" sketch:type="MSShapeGroup"></path>
            <text id="Red01" sketch:type="MSTextLayer" font-family="Lato" font-size="14" font-weight="260" fill="#FFFFFF">
                <tspan x="322" y="197">Red01</tspan>
            </text>
            <g id="Imported-Layers-3" sketch:type="MSLayerGroup" transform="translate(525.000000, 185.000000)">
                <g id="Group-3" transform="translate(4.000000, 6.000000)">
                    <mask id="mask-15" sketch:name="Clip 2" fill="white">
                        <use xlink:href="#path-14"></use>
                    </mask>
                    <g id="Clip-2"></g>
                    <path d="M-0.269,2.932 C-0.176,3.476 0.341,3.842 0.885,3.748 C1.1,3.712 1.297,3.605 1.446,3.446 C2.041,2.852 2.96,2.852 3.554,3.446 C3.947,3.839 4.583,3.839 4.976,3.446 C5.368,3.054 5.368,2.417 4.976,2.025 C3.617,0.666 1.383,0.666 0.025,2.025 C-0.22,2.258 -0.331,2.599 -0.269,2.932" id="Fill-1" fill="#FFFFFF" sketch:type="MSShapeGroup" mask="url(#mask-15)"></path>
                </g>
                <g id="Group-6" transform="translate(2.000000, 2.000000)">
                    <mask id="mask-17" sketch:name="Clip 5" fill="white">
                        <use xlink:href="#path-16"></use>
                    </mask>
                    <g id="Clip-5"></g>
                    <path d="M-0.407,4.725 C-0.357,5.275 0.13,5.68 0.68,5.63 C0.924,5.608 1.151,5.497 1.319,5.318 C3.084,3.552 5.916,3.552 7.681,5.318 C8.017,5.757 8.644,5.841 9.083,5.505 C9.522,5.17 9.606,4.542 9.27,4.103 L9.083,3.916 C6.553,1.386 2.447,1.386 -0.083,3.916 C-0.309,4.122 -0.428,4.42 -0.407,4.725" id="Fill-4" fill="#FFFFFF" sketch:type="MSShapeGroup" mask="url(#mask-17)"></path>
                </g>
                <path d="M8,11.5 C8,12.328 7.328,13 6.5,13 C5.672,13 5,12.328 5,11.5 C5,10.672 5.672,10 6.5,10 C7.328,10 8,10.672 8,11.5" id="Fill-7" fill="#FFFFFF" sketch:type="MSShapeGroup"></path>
                <g id="Group-10">
                    <mask id="mask-19" sketch:name="Clip 9" fill="white">
                        <use xlink:href="#path-18"></use>
                    </mask>
                    <g id="Clip-9"></g>
                    <path d="M6.502,0.974 C4.162,0.974 1.823,1.817 0.005,3.505 L0.005,5.003 L1.336,5.003 C2.783,3.643 4.642,2.964 6.502,2.964 C8.361,2.964 10.22,3.643 11.667,5.003 L13.001,5.003 L13.001,3.509 C11.183,1.819 8.842,0.974 6.502,0.974" id="Fill-8" fill="#FFFFFF" sketch:type="MSShapeGroup" mask="url(#mask-19)"></path>
                </g>
            </g>
            <path d="M554.8,184 C552,184 550,185.565214 550,188.125 L550,190.375 L549.2,190.375 C548.4,190.375 548,190.75 548,191.5 L548,197.875 C548,198.242622 548.4,199 549.2,199 L560.953606,199 C561.6,198.996455 562,198.242622 562,197.875 L562,191.5 C562,190.75 561.6,190.371455 560.8,190.371455 L560,190.375 L560,188.125 C560,185.5 558,184 555.2,184 L554.8,184 L554.8,184 Z M554.8,185.875 L555.2,185.875 C558,185.875 558,188.125 558,188.875 L558,190.375 L552,190.375 L552,188.875 C552,188.125 552,185.875 554.8,185.875 L554.8,185.875 Z" id="path2086" fill="#FFFFFF" sketch:type="MSShapeGroup"></path>
            <text id="Red02" sketch:type="MSTextLayer" font-family="Lato" font-size="14" font-weight="260" fill="#FFFFFF">
                <tspan x="322" y="224">Red02</tspan>
            </text>
            <g id="Imported-Layers-3" sketch:type="MSLayerGroup" transform="translate(525.000000, 212.000000)">
                <g id="Group-3" transform="translate(4.000000, 6.000000)">
                    <mask id="mask-21" sketch:name="Clip 2" fill="white">
                        <use xlink:href="#path-20"></use>
                    </mask>
                    <g id="Clip-2"></g>
                    <path d="M-0.269,2.932 C-0.176,3.476 0.341,3.842 0.885,3.748 C1.1,3.712 1.297,3.605 1.446,3.446 C2.041,2.852 2.96,2.852 3.554,3.446 C3.947,3.839 4.583,3.839 4.976,3.446 C5.368,3.054 5.368,2.417 4.976,2.025 C3.617,0.666 1.383,0.666 0.025,2.025 C-0.22,2.258 -0.331,2.599 -0.269,2.932" id="Fill-1" fill="#FFFFFF" sketch:type="MSShapeGroup" mask="url(#mask-21)"></path>
                </g>
                <g id="Group-6" transform="translate(2.000000, 2.000000)">
                    <mask id="mask-23" sketch:name="Clip 5" fill="white">
                        <use xlink:href="#path-22"></use>
                    </mask>
                    <g id="Clip-5"></g>
                    <path d="M-0.407,4.725 C-0.357,5.275 0.13,5.68 0.68,5.63 C0.924,5.608 1.151,5.497 1.319,5.318 C3.084,3.552 5.916,3.552 7.681,5.318 C8.017,5.757 8.644,5.841 9.083,5.505 C9.522,5.17 9.606,4.542 9.27,4.103 L9.083,3.916 C6.553,1.386 2.447,1.386 -0.083,3.916 C-0.309,4.122 -0.428,4.42 -0.407,4.725" id="Fill-4" fill="#FFFFFF" sketch:type="MSShapeGroup" mask="url(#mask-23)"></path>
                </g>
                <path d="M8,11.5 C8,12.328 7.328,13 6.5,13 C5.672,13 5,12.328 5,11.5 C5,10.672 5.672,10 6.5,10 C7.328,10 8,10.672 8,11.5" id="Fill-7" fill="#FFFFFF" sketch:type="MSShapeGroup"></path>
                <g id="Group-10">
                    <mask id="mask-25" sketch:name="Clip 9" fill="white">
                        <use xlink:href="#path-24"></use>
                    </mask>
                    <g id="Clip-9"></g>
                    <path d="M6.502,0.974 C4.162,0.974 1.823,1.817 0.005,3.505 L0.005,5.003 L1.336,5.003 C2.783,3.643 4.642,2.964 6.502,2.964 C8.361,2.964 10.22,3.643 11.667,5.003 L13.001,5.003 L13.001,3.509 C11.183,1.819 8.842,0.974 6.502,0.974" id="Fill-8" fill="#999999" sketch:type="MSShapeGroup" mask="url(#mask-25)"></path>
                </g>
            </g>
            <path d="M554.8,211 C552,211 550,212.565214 550,215.125 L550,217.375 L549.2,217.375 C548.4,217.375 548,217.75 548,218.5 L548,224.875 C548,225.242622 548.4,226 549.2,226 L560.953606,226 C561.6,225.996455 562,225.242622 562,224.875 L562,218.5 C562,217.75 561.6,217.371455 560.8,217.371455 L560,217.375 L560,215.125 C560,212.5 558,211 555.2,211 L554.8,211 L554.8,211 Z M554.8,212.875 L555.2,212.875 C558,212.875 558,215.125 558,215.875 L558,217.375 L552,217.375 L552,215.875 C552,215.125 552,212.875 554.8,212.875 L554.8,212.875 Z" id="path2086" fill="#FFFFFF" sketch:type="MSShapeGroup"></path>
            <text id="Red03" sketch:type="MSTextLayer" font-family="Lato" font-size="14" font-weight="260" fill="#FFFFFF">
                <tspan x="322" y="251">Red03</tspan>
            </text>
            <g id="Imported-Layers-3" sketch:type="MSLayerGroup" transform="translate(525.000000, 239.000000)">
                <g id="Group-3" transform="translate(4.000000, 6.000000)">
                    <mask id="mask-27" sketch:name="Clip 2" fill="white">
                        <use xlink:href="#path-26"></use>
                    </mask>
                    <g id="Clip-2"></g>
                    <path d="M-0.269,2.932 C-0.176,3.476 0.341,3.842 0.885,3.748 C1.1,3.712 1.297,3.605 1.446,3.446 C2.041,2.852 2.96,2.852 3.554,3.446 C3.947,3.839 4.583,3.839 4.976,3.446 C5.368,3.054 5.368,2.417 4.976,2.025 C3.617,0.666 1.383,0.666 0.025,2.025 C-0.22,2.258 -0.331,2.599 -0.269,2.932" id="Fill-1" fill="#FFFFFF" sketch:type="MSShapeGroup" mask="url(#mask-27)"></path>
                </g>
                <g id="Group-6" transform="translate(2.000000, 2.000000)">
                    <mask id="mask-29" sketch:name="Clip 5" fill="white">
                        <use xlink:href="#path-28"></use>
                    </mask>
                    <g id="Clip-5"></g>
                    <path d="M-0.407,4.725 C-0.357,5.275 0.13,5.68 0.68,5.63 C0.924,5.608 1.151,5.497 1.319,5.318 C3.084,3.552 5.916,3.552 7.681,5.318 C8.017,5.757 8.644,5.841 9.083,5.505 C9.522,5.17 9.606,4.542 9.27,4.103 L9.083,3.916 C6.553,1.386 2.447,1.386 -0.083,3.916 C-0.309,4.122 -0.428,4.42 -0.407,4.725" id="Fill-4" fill="#999999" sketch:type="MSShapeGroup" mask="url(#mask-29)"></path>
                </g>
                <path d="M8,11.5 C8,12.328 7.328,13 6.5,13 C5.672,13 5,12.328 5,11.5 C5,10.672 5.672,10 6.5,10 C7.328,10 8,10.672 8,11.5" id="Fill-7" fill="#FFFFFF" sketch:type="MSShapeGroup"></path>
                <g id="Group-10">
                    <mask id="mask-31" sketch:name="Clip 9" fill="white">
                        <use xlink:href="#path-30"></use>
                    </mask>
                    <g id="Clip-9"></g>
                    <path d="M6.502,0.974 C4.162,0.974 1.823,1.817 0.005,3.505 L0.005,5.003 L1.336,5.003 C2.783,3.643 4.642,2.964 6.502,2.964 C8.361,2.964 10.22,3.643 11.667,5.003 L13.001,5.003 L13.001,3.509 C11.183,1.819 8.842,0.974 6.502,0.974" id="Fill-8" fill="#999999" sketch:type="MSShapeGroup" mask="url(#mask-31)"></path>
                </g>
            </g>
            <path d="M554.8,238 C552,238 550,239.565214 550,242.125 L550,244.375 L549.2,244.375 C548.4,244.375 548,244.75 548,245.5 L548,251.875 C548,252.242622 548.4,253 549.2,253 L560.953606,253 C561.6,252.996455 562,252.242622 562,251.875 L562,245.5 C562,244.75 561.6,244.371455 560.8,244.371455 L560,244.375 L560,242.125 C560,239.5 558,238 555.2,238 L554.8,238 L554.8,238 Z M554.8,239.875 L555.2,239.875 C558,239.875 558,242.125 558,242.875 L558,244.375 L552,244.375 L552,242.875 C552,242.125 552,239.875 554.8,239.875 L554.8,239.875 Z" id="path2086" fill="#FFFFFF" sketch:type="MSShapeGroup"></path>
            <path d="M522,329 L543,329 L532.5,340 L522,329 Z" id="Triangle-1" fill="#333333" sketch:type="MSShapeGroup"></path>
            <path d="M322.5,276.5 L564.574371,276.5" id="Line" stroke="#5E5E5E" stroke-linecap="square" sketch:type="MSShapeGroup"></path>
        </g>
    </g>
</svg>