<?xml version="1.0" encoding="UTF-8" standalone="no"?>
<svg width="840px" height="400px" viewBox="0 0 840 400" version="1.1" xmlns="http://www.w3.org/2000/svg" xmlns:xlink="http://www.w3.org/1999/xlink" xmlns:sketch="http://www.bohemiancoding.com/sketch/ns">
    <!-- Generator: Sketch 3.1 (8751) - http://www.bohemiancoding.com/sketch -->
    <title>gs-goa1</title>
    <desc>Created with Sketch.</desc>
    <defs>
        <filter x="-50%" y="-50%" width="200%" height="200%" filterUnits="objectBoundingBox" id="filter-1">
            <feMorphology radius="1" in="SourceAlpha" operator="dilate" result="shadowSpreadOuter1"></feMorphology>
            <feOffset dx="0" dy="1" in="shadowSpreadOuter1" result="shadowOffsetOuter1"></feOffset>
            <feGaussianBlur stdDeviation="2" in="shadowOffsetOuter1" result="shadowBlurOuter1"></feGaussianBlur>
            <feColorMatrix values="0 0 0 0 0   0 0 0 0 0   0 0 0 0 0  0 0 0 0.21 0" in="shadowBlurOuter1" type="matrix" result="shadowMatrixOuter1"></feColorMatrix>
            <feMerge>
                <feMergeNode in="shadowMatrixOuter1"></feMergeNode>
                <feMergeNode in="SourceGraphic"></feMergeNode>
            </feMerge>
        </filter>
        <filter x="-50%" y="-50%" width="200%" height="200%" filterUnits="objectBoundingBox" id="filter-2">
            <feMorphology radius="1" in="SourceAlpha" operator="dilate" result="shadowSpreadOuter1"></feMorphology>
            <feOffset dx="0" dy="1" in="shadowSpreadOuter1" result="shadowOffsetOuter1"></feOffset>
            <feGaussianBlur stdDeviation="2" in="shadowOffsetOuter1" result="shadowBlurOuter1"></feGaussianBlur>
            <feColorMatrix values="0 0 0 0 0   0 0 0 0 0   0 0 0 0 0  0 0 0 0.21 0" in="shadowBlurOuter1" type="matrix" result="shadowMatrixOuter1"></feColorMatrix>
            <feMerge>
                <feMergeNode in="shadowMatrixOuter1"></feMergeNode>
                <feMergeNode in="SourceGraphic"></feMergeNode>
            </feMerge>
        </filter>
    </defs>
    <g id="Page-1" stroke="none" stroke-width="1" fill="none" fill-rule="evenodd" sketch:type="MSPage">
        <g id="gs-goa1" sketch:type="MSArtboardGroup">
            <g id="Oval-1-+-1" sketch:type="MSLayerGroup" transform="translate(121.000000, 26.000000)">
                <circle id="Oval-1" fill="#B9B9B9" sketch:type="MSShapeGroup" cx="18" cy="18" r="18"></circle>
                <text id="1" sketch:type="MSTextLayer" font-family="Lato" font-size="18" font-weight="normal" sketch:alignment="middle" fill="#FFFFFF">
                    <tspan x="12.28" y="24">1</tspan>
                </text>
            </g>
            <circle id="Oval-1" fill="#B9B9B9" sketch:type="MSShapeGroup" cx="458" cy="44" r="18"></circle>
            <text id="2" sketch:type="MSTextLayer" font-family="Lato" font-size="18" font-weight="normal" sketch:alignment="middle" fill="#FFFFFF">
                <tspan x="452.28" y="50">2</tspan>
            </text>
            <rect id="Rectangle-1" stroke="#C6C6C6" stroke-width="2" stroke-dasharray="3,3" fill="#EFEFEF" sketch:type="MSShapeGroup" x="121.315588" y="84" width="257.684412" height="169"></rect>
            <rect id="Rectangle-1" stroke="#C6C6C6" stroke-width="2" stroke-dasharray="3,3" fill="#EFEFEF" sketch:type="MSShapeGroup" x="442.315588" y="84" width="257.684412" height="169"></rect>
            <path d="M462,185.498683 L462,86 L660,86 L660,193.997365 C660,196.218134 658.209198,198 656.000131,198 L475.139648,198 L462,211 L462,185.498683 Z" id="Rectangle-122" fill="#333333" sketch:type="MSShapeGroup"></path>
            <text id="Configuración" sketch:type="MSTextLayer" font-family="Lato" font-size="14" font-weight="normal" fill="#FFFFFF">
                <tspan x="503" y="119">Configuración</tspan>
            </text>
            <rect id="Rectangle-3" fill="#333333" sketch:type="MSShapeGroup" x="122" y="221" width="257" height="32"></rect>
            <rect id="Rectangle-3" fill="#333333" sketch:type="MSShapeGroup" x="443" y="221" width="257" height="32"></rect>
            <path d="M123.180301,254 L380,254 L380,85" id="Rectangle-1" stroke="#999999" stroke-width="2" sketch:type="MSShapeGroup"></path>
            <path d="M444.180301,254 L701,254 L701,85" id="Rectangle-1" stroke="#999999" stroke-width="2" sketch:type="MSShapeGroup"></path>
            <g id="Imported-Layers" sketch:type="MSLayerGroup" transform="translate(213.000000, 286.000000)">
                <path d="M39.767,14.798 L39.767,14.845 C39.586,14.838 39.403,14.838 39.233,14.834 C39.225,14.833 39.216,14.833 39.208,14.834 L39.208,14.822 C24.783,14.822 18.014,21.759 15.407,28.381 C13.714,32.685 14.364,37.762 15.039,42.907 C15.29,44.821 15.604,46.868 15.954,48.978 C15.975,49.563 15.993,50.131 15.979,50.599 C15.783,57.481 13.239,65.92 13.387,71.112 C13.661,80.725 19.144,87.07 26.437,90.313 C26.552,90.364 26.664,90.418 26.78,90.468 C35.129,94.275 45.014,94.551 53.02,89.705 C59.935,86.252 64.965,80.012 64.965,71.112 C64.965,65.918 62.568,57.481 62.372,50.599 C62.293,47.806 62.957,42.239 62.957,42.239 C63.581,39.475 64.031,36.505 63.91,33.617 C63.908,33.577 63.912,33.537 63.91,33.498 C63.864,32.026 63.649,30.611 63.224,29.288 C63.176,29.139 63.125,28.993 63.071,28.846 C63.03,28.722 63.001,28.6 62.957,28.477 C62.71,27.793 62.378,27.099 61.991,26.414 C61.964,26.361 61.93,26.311 61.902,26.259 C57.087,17.179 48.887,14.798 39.767,14.798 L39.767,14.798 Z" id="Fill-1" fill="#FFFFFF" sketch:type="MSShapeGroup"></path>
                <path d="M39.767,14.798 L39.767,14.845 C39.586,14.838 39.403,14.838 39.233,14.834 C39.225,14.833 39.216,14.833 39.208,14.834 L39.208,14.822 C24.783,14.822 18.014,21.759 15.407,28.381 C13.714,32.685 14.364,37.762 15.039,42.907 C15.29,44.821 15.604,46.868 15.954,48.978 C15.975,49.563 15.993,50.131 15.979,50.599 C15.783,57.481 13.239,65.92 13.387,71.112 C13.661,80.725 19.144,87.07 26.437,90.313 C26.552,90.364 26.664,90.418 26.78,90.468 C35.129,94.275 45.014,94.551 53.02,89.705 C59.935,86.252 64.965,80.012 64.965,71.112 C64.965,65.918 62.568,57.481 62.372,50.599 C62.293,47.806 62.957,42.239 62.957,42.239 C63.581,39.475 64.031,36.505 63.91,33.617 C63.908,33.577 63.912,33.537 63.91,33.498 C63.864,32.026 63.649,30.611 63.224,29.288 C63.176,29.139 63.125,28.993 63.071,28.846 C63.03,28.722 63.001,28.6 62.957,28.477 C62.71,27.793 62.378,27.099 61.991,26.414 C61.964,26.361 61.93,26.311 61.902,26.259 C57.087,17.179 48.887,14.798 39.767,14.798 L39.767,14.798 Z" id="Stroke-2" stroke="#000000" stroke-width="5" stroke-linejoin="round" sketch:type="MSShapeGroup"></path>
                <path d="M60.972,43.274 C61.853,38.593 62.696,33.251 61.008,29.14 C56.739,18.746 48.712,16.105 39.713,16.105 L39.198,16.124 C25.902,16.124 19.662,22.83 17.26,29.232 C17.26,29.232 16.298,38.301 16.92,43.274" id="Stroke-3" stroke="#000000" stroke-width="0.375" sketch:type="MSShapeGroup"></path>
                <path d="M39.173,14.835 C24.779,14.849 18.024,21.751 15.421,28.367 C13.727,32.67 14.364,37.777 15.039,42.921 C15.256,44.576 15.551,46.346 15.845,48.154 C16.16,48.16 16.452,48.195 16.778,48.195 C23.76,46.485 30.266,44.919 39.173,44.925 L39.173,14.835" id="Fill-4" fill="#000000" sketch:type="MSShapeGroup"></path>
                <path d="M39.173,14.818 L39.173,44.908" id="Stroke-5" stroke="#000000" stroke-width="0.375" sketch:type="MSShapeGroup"></path>
                <path d="M38.162,23.163 L40.184,23.163 C41.017,23.163 41.693,23.815 41.693,24.618 L41.693,36.738 C41.693,37.542 41.017,38.193 40.184,38.193 L38.162,38.193 C37.328,38.193 36.653,37.542 36.653,36.738 L36.653,24.618 C36.653,23.815 37.328,23.163 38.162,23.163 L38.162,23.163 Z" id="Fill-6" fill="#FFFFFF" sketch:type="MSShapeGroup"></path>
                <path d="M38.162,23.163 L40.184,23.163 C41.017,23.163 41.693,23.815 41.693,24.618 L41.693,36.738 C41.693,37.542 41.017,38.193 40.184,38.193 L38.162,38.193 C37.328,38.193 36.653,37.542 36.653,36.738 L36.653,24.618 C36.653,23.815 37.328,23.163 38.162,23.163 L38.162,23.163 Z" id="Stroke-7" stroke="#000000" stroke-width="0.75" stroke-linecap="square" stroke-linejoin="round" sketch:type="MSShapeGroup"></path>
                <path d="M16.778,48.179 C23.76,46.468 30.261,44.902 39.163,44.908 C48.064,44.902 54.566,46.468 61.548,48.179" id="Stroke-8" stroke="#000000" stroke-width="0.375" sketch:type="MSShapeGroup"></path>
                <path d="M6.594,38.192 L-0.085,38.192 M7.704,29.764 L1.252,28.035 M10.957,21.911 L5.172,18.571 M16.132,15.167 L11.408,10.443 M22.876,9.992 L19.536,4.207 M30.73,6.739 L29.001,0.286 M7.704,46.621 L1.252,48.349" id="Stroke-9" stroke="#000000" stroke-width="0.598" stroke-linecap="round" sketch:type="MSShapeGroup"></path>
            </g>
            <path d="M158.883961,238.170842 C158.826649,238.925556 158.525211,239.181842 158.303399,239.309128 C157.827399,239.580842 157.084961,239.612556 156.157461,239.468128 C154.724211,239.245699 152.849524,238.605413 150.834399,237.789413 C153.988774,236.318985 156.902524,235.427556 158.197524,236.154413 C158.396586,236.265842 159.001211,236.60527 158.883961,238.170842 L158.883961,238.170842 Z M142.619461,235.79227 C139.465086,237.262699 136.550899,238.154985 135.256336,237.427699 C135.057274,237.31627 134.452649,236.976842 134.570774,235.411699 C134.627211,234.656128 134.928649,234.399842 135.150461,234.272985 C135.626461,234.00127 136.368899,233.970413 137.295961,234.113985 C138.729211,234.336413 140.604336,234.97627 142.619461,235.79227 L142.619461,235.79227 Z M158.970586,234.831842 C156.851774,233.641699 152.728774,235.115985 149.037586,236.951985 C148.093899,236.516556 147.157649,236.085842 146.243711,235.676985 C148.947461,234.203556 151.137149,232.746842 151.666086,232.389842 C152.020024,232.150699 152.109274,231.67627 151.865586,231.329556 C151.621461,230.982842 151.137149,230.895842 150.782774,231.134985 C149.020961,232.325556 146.741149,233.705556 144.449524,234.891413 C140.058774,233.017699 136.308524,231.84727 134.366899,232.956413 C133.807774,233.276128 133.120461,233.941699 133.018524,235.299413 C132.861899,237.384413 133.728586,238.326842 134.483274,238.750699 C136.601649,239.940842 140.725086,238.465699 144.415836,236.630128 C145.359524,237.065556 146.295774,237.49627 147.209711,237.905128 C144.506399,239.378128 142.316274,240.835699 141.786899,241.19227 C141.433399,241.431842 141.344586,241.906699 141.588274,242.252985 C141.832399,242.59927 142.316711,242.68627 142.670649,242.447556 C144.432461,241.256556 146.711836,239.876556 149.004336,238.690699 C153.395086,240.563556 157.145336,241.734842 159.086961,240.625699 C159.646086,240.306413 160.332961,239.640842 160.435336,238.282699 C160.592399,236.197699 159.725274,235.254842 158.970586,234.831842 L158.970586,234.831842 Z" id="Imported-Layers-2" fill="#FFFFFF" sketch:type="MSShapeGroup"></path>
            <path d="M479.883961,238.170842 C479.826649,238.925556 479.525211,239.181842 479.303399,239.309128 C478.827399,239.580842 478.084961,239.612556 477.157461,239.468128 C475.724211,239.245699 473.849524,238.605413 471.834399,237.789413 C474.988774,236.318985 477.902524,235.427556 479.197524,236.154413 C479.396586,236.265842 480.001211,236.60527 479.883961,238.170842 L479.883961,238.170842 Z M463.619461,235.79227 C460.465086,237.262699 457.550899,238.154985 456.256336,237.427699 C456.057274,237.31627 455.452649,236.976842 455.570774,235.411699 C455.627211,234.656128 455.928649,234.399842 456.150461,234.272985 C456.626461,234.00127 457.368899,233.970413 458.295961,234.113985 C459.729211,234.336413 461.604336,234.97627 463.619461,235.79227 L463.619461,235.79227 Z M479.970586,234.831842 C477.851774,233.641699 473.728774,235.115985 470.037586,236.951985 C469.093899,236.516556 468.157649,236.085842 467.243711,235.676985 C469.947461,234.203556 472.137149,232.746842 472.666086,232.389842 C473.020024,232.150699 473.109274,231.67627 472.865586,231.329556 C472.621461,230.982842 472.137149,230.895842 471.782774,231.134985 C470.020961,232.325556 467.741149,233.705556 465.449524,234.891413 C461.058774,233.017699 457.308524,231.84727 455.366899,232.956413 C454.807774,233.276128 454.120461,233.941699 454.018524,235.299413 C453.861899,237.384413 454.728586,238.326842 455.483274,238.750699 C457.601649,239.940842 461.725086,238.465699 465.415836,236.630128 C466.359524,237.065556 467.295774,237.49627 468.209711,237.905128 C465.506399,239.378128 463.316274,240.835699 462.786899,241.19227 C462.433399,241.431842 462.344586,241.906699 462.588274,242.252985 C462.832399,242.59927 463.316711,242.68627 463.670649,242.447556 C465.432461,241.256556 467.711836,239.876556 470.004336,238.690699 C474.395086,240.563556 478.145336,241.734842 480.086961,240.625699 C480.646086,240.306413 481.332961,239.640842 481.435336,238.282699 C481.592399,236.197699 480.725274,235.254842 479.970586,234.831842 L479.970586,234.831842 Z" id="Imported-Layers-2" fill="#FFFFFF" sketch:type="MSShapeGroup"></path>
            <path d="M495,114.764 L495,113.171 L493.068,112.54 L492.613,111.441 L493.49,109.59 L492.361,108.464 L490.55,109.383 L489.452,108.928 L488.762,107 L487.17,107 L486.539,108.931 L485.441,109.386 L483.589,108.511 L482.463,109.637 L483.382,111.448 L482.928,112.546 L481,113.237 L481,114.832 L482.93,115.462 L483.384,116.561 L482.51,118.412 L483.636,119.539 L485.447,118.618 L486.546,119.075 L487.237,121 L488.83,121 L489.461,119.068 L490.561,118.615 L492.411,119.49 L493.539,118.363 L492.619,116.551 L493.075,115.453 L495,114.764 L495,114.764 Z M488,116.23 C486.768,116.23 485.769,115.23 485.769,114 C485.769,112.768 486.768,111.77 488,111.77 C489.232,111.77 490.23,112.769 490.23,114 C490.23,115.23 489.232,116.23 488,116.23 L488,116.23 Z" id="Shape" fill="#FFFFFF" sketch:type="MSShapeGroup"></path>
            <circle id="Oval-25" fill="#666666" sketch:type="MSShapeGroup" cx="488" cy="141" r="7"></circle>
            <circle id="Oval-25" fill="#666666" sketch:type="MSShapeGroup" cx="488" cy="166" r="7"></circle>
            <rect id="Rectangle-119" fill="#666666" sketch:type="MSShapeGroup" x="504" y="137" width="83" height="8"></rect>
            <rect id="Rectangle-119" fill="#666666" sketch:type="MSShapeGroup" x="504" y="162" width="83" height="8"></rect>
            <path d="M160.028,261.99 L166.518,262.738 L151,244 L151,268.011 L155.698,263.45 L158.145,270.31 C158.469,271.22 159.331,271.831 160.293,271.831 L160.295,271.831 C160.554,271.831 160.812,271.786 161.066,271.696 C161.972,271.37 162.58,270.504 162.58,269.541 C162.58,269.275 162.535,269.016 162.446,268.77 L160.028,261.99 L160.028,261.99 Z" id="Imported-Layers-3" stroke="#FFFFFF" stroke-width="2" stroke-linejoin="round" fill="#000000" filter="url(#filter-1)" sketch:type="MSShapeGroup"></path>
            <path d="M535.028,134.99 L541.518,135.738 L526,117 L526,141.011 L530.698,136.45 L533.145,143.31 C533.469,144.22 534.331,144.831 535.293,144.831 L535.295,144.831 C535.554,144.831 535.812,144.786 536.066,144.696 C536.972,144.37 537.58,143.504 537.58,142.541 C537.58,142.275 537.535,142.016 537.446,141.77 L535.028,134.99 L535.028,134.99 Z" id="Imported-Layers-3" stroke="#FFFFFF" stroke-width="2" stroke-linejoin="round" fill="#000000" filter="url(#filter-2)" sketch:type="MSShapeGroup"></path>
        </g>
    </g>
</svg>