<?xml version="1.0" encoding="UTF-8" standalone="no"?>
<svg width="840px" height="500px" viewBox="0 0 840 500" version="1.1" xmlns="http://www.w3.org/2000/svg" xmlns:xlink="http://www.w3.org/1999/xlink" xmlns:sketch="http://www.bohemiancoding.com/sketch/ns">
    <!-- Generator: Sketch 3.1 (8751) - http://www.bohemiancoding.com/sketch -->
    <title>gs-search1</title>
    <desc>Created with Sketch.</desc>
    <defs>
        <filter x="-50%" y="-50%" width="200%" height="200%" filterUnits="objectBoundingBox" id="filter-1">
            <feOffset dx="0" dy="0" in="SourceAlpha" result="shadowOffsetOuter1"></feOffset>
            <feGaussianBlur stdDeviation="2" in="shadowOffsetOuter1" result="shadowBlurOuter1"></feGaussianBlur>
            <feColorMatrix values="0 0 0 0 1   0 0 0 0 1   0 0 0 0 1  0 0 0 0.35 0" in="shadowBlurOuter1" type="matrix" result="shadowMatrixOuter1"></feColorMatrix>
            <feMerge>
                <feMergeNode in="shadowMatrixOuter1"></feMergeNode>
                <feMergeNode in="SourceGraphic"></feMergeNode>
            </feMerge>
        </filter>
        <filter x="-50%" y="-50%" width="200%" height="200%" filterUnits="objectBoundingBox" id="filter-2">
            <feMorphology radius="1" in="SourceAlpha" operator="dilate" result="shadowSpreadOuter1"></feMorphology>
            <feOffset dx="0" dy="1" in="shadowSpreadOuter1" result="shadowOffsetOuter1"></feOffset>
            <feGaussianBlur stdDeviation="2" in="shadowOffsetOuter1" result="shadowBlurOuter1"></feGaussianBlur>
            <feColorMatrix values="0 0 0 0 0   0 0 0 0 0   0 0 0 0 0  0 0 0 0.21 0" in="shadowBlurOuter1" type="matrix" result="shadowMatrixOuter1"></feColorMatrix>
            <feMerge>
                <feMergeNode in="shadowMatrixOuter1"></feMergeNode>
                <feMergeNode in="SourceGraphic"></feMergeNode>
            </feMerge>
        </filter>
    </defs>
    <g id="Page-1" stroke="none" stroke-width="1" fill="none" fill-rule="evenodd" sketch:type="MSPage">
        <g id="gs-search1" sketch:type="MSArtboardGroup">
            <rect id="Rectangle-1" stroke="#C6C6C6" stroke-width="2" fill="#FFFFFF" sketch:type="MSShapeGroup" x="133" y="74" width="605" height="342" rx="4"></rect>
            <rect id="Rectangle-3" fill="#E0E0E0" sketch:type="MSShapeGroup" x="134" y="382" width="603" height="33"></rect>
            <g id="Imported-Layers-+-Imported-Layers" sketch:type="MSLayerGroup" transform="translate(326.000000, 319.000000)">
                <path d="M202.494,0 L16.505,0 C7.39,0 0,7.386 0,16.501 C0,25.613 7.38,33.001 16.505,33.001 L202.494,33.001 C211.61,33.001 219,25.615 219,16.501 C219,7.388 211.619,0 202.494,0" id="Imported-Layers" fill="#E0E0E0" sketch:type="MSShapeGroup"></path>
                <path d="M25.656,21.91 L21.897,17.96 C22.539,16.954 22.912,15.759 22.912,14.476 C22.912,10.899 20.022,8 16.456,8 C12.89,8 10,10.899 10,14.476 C10,18.051 12.89,20.951 16.456,20.951 C17.85,20.951 19.14,20.506 20.196,19.753 L23.873,23.617 C24.343,24.111 25.123,24.13 25.616,23.658 C26.108,23.187 26.125,22.404 25.656,21.91 L25.656,21.91 Z M11.982,14.476 C11.982,11.997 13.985,9.988 16.456,9.988 C18.927,9.988 20.93,11.997 20.93,14.476 C20.93,16.954 18.927,18.963 16.456,18.963 C13.985,18.963 11.982,16.954 11.982,14.476 L11.982,14.476 Z" id="Imported-Layers" fill="#FFFFFF" sketch:type="MSShapeGroup"></path>
            </g>
            <rect id="Rectangle-4" stroke="#333333" stroke-width="2" fill="#FF8C0F" sketch:type="MSShapeGroup" x="225" y="184" width="43" height="43" rx="4"></rect>
            <rect id="Rectangle-4" fill="#E0E0E0" sketch:type="MSShapeGroup" x="225" y="243" width="43" height="43" rx="4"></rect>
            <rect id="Rectangle-4" fill="#E0E0E0" sketch:type="MSShapeGroup" x="288" y="184" width="43" height="43" rx="4"></rect>
            <rect id="Rectangle-4" fill="#E0E0E0" sketch:type="MSShapeGroup" x="288" y="243" width="43" height="43" rx="4"></rect>
            <rect id="Rectangle-5" fill="#E0E0E0" sketch:type="MSShapeGroup" x="351" y="184" width="43" height="43" rx="4"></rect>
            <rect id="Rectangle-5" fill="#E0E0E0" sketch:type="MSShapeGroup" x="351" y="243" width="43" height="43" rx="4"></rect>
            <rect id="Rectangle-6" fill="#E0E0E0" sketch:type="MSShapeGroup" x="414" y="184" width="43" height="43" rx="4"></rect>
            <rect id="Rectangle-6" fill="#E0E0E0" sketch:type="MSShapeGroup" x="414" y="243" width="43" height="43" rx="4"></rect>
            <rect id="Rectangle-7" fill="#E0E0E0" sketch:type="MSShapeGroup" x="477" y="184" width="43" height="43" rx="4"></rect>
            <rect id="Rectangle-7" fill="#E0E0E0" sketch:type="MSShapeGroup" x="477" y="243" width="43" height="43" rx="4"></rect>
            <rect id="Rectangle-8" fill="#E0E0E0" sketch:type="MSShapeGroup" x="540" y="184" width="43" height="43" rx="4"></rect>
            <rect id="Rectangle-8" fill="#E0E0E0" sketch:type="MSShapeGroup" x="540" y="243" width="43" height="43" rx="4"></rect>
            <rect id="Rectangle-9" fill="#E0E0E0" sketch:type="MSShapeGroup" x="603" y="184" width="43" height="43" rx="4"></rect>
            <rect id="Rectangle-9" fill="#E0E0E0" sketch:type="MSShapeGroup" x="603" y="243" width="43" height="43" rx="4"></rect>
            <circle id="Oval-1" fill="#B9B9B9" sketch:type="MSShapeGroup" cx="95" cy="93" r="18"></circle>
            <text id="1" sketch:type="MSTextLayer" font-family="Lato" font-size="18" font-weight="normal" sketch:alignment="middle" fill="#FFFFFF">
                <tspan x="89.28" y="99">1</tspan>
            </text>
            <circle id="Oval-3" fill="#FFE97A" filter="url(#filter-1)" sketch:type="MSShapeGroup" cx="246.5" cy="205.5" r="14.5"></circle>
            <path d="M169.883961,400.170842 C169.826649,400.925556 169.525211,401.181842 169.303399,401.309128 C168.827399,401.580842 168.084961,401.612556 167.157461,401.468128 C165.724211,401.245699 163.849524,400.605413 161.834399,399.789413 C164.988774,398.318985 167.902524,397.427556 169.197524,398.154413 C169.396586,398.265842 170.001211,398.60527 169.883961,400.170842 L169.883961,400.170842 Z M153.619461,397.79227 C150.465086,399.262699 147.550899,400.154985 146.256336,399.427699 C146.057274,399.31627 145.452649,398.976842 145.570774,397.411699 C145.627211,396.656128 145.928649,396.399842 146.150461,396.272985 C146.626461,396.00127 147.368899,395.970413 148.295961,396.113985 C149.729211,396.336413 151.604336,396.97627 153.619461,397.79227 L153.619461,397.79227 Z M169.970586,396.831842 C167.851774,395.641699 163.728774,397.115985 160.037586,398.951985 C159.093899,398.516556 158.157649,398.085842 157.243711,397.676985 C159.947461,396.203556 162.137149,394.746842 162.666086,394.389842 C163.020024,394.150699 163.109274,393.67627 162.865586,393.329556 C162.621461,392.982842 162.137149,392.895842 161.782774,393.134985 C160.020961,394.325556 157.741149,395.705556 155.449524,396.891413 C151.058774,395.017699 147.308524,393.84727 145.366899,394.956413 C144.807774,395.276128 144.120461,395.941699 144.018524,397.299413 C143.861899,399.384413 144.728586,400.326842 145.483274,400.750699 C147.601649,401.940842 151.725086,400.465699 155.415836,398.630128 C156.359524,399.065556 157.295774,399.49627 158.209711,399.905128 C155.506399,401.378128 153.316274,402.835699 152.786899,403.19227 C152.433399,403.431842 152.344586,403.906699 152.588274,404.252985 C152.832399,404.59927 153.316711,404.68627 153.670649,404.447556 C155.432461,403.256556 157.711836,401.876556 160.004336,400.690699 C164.395086,402.563556 168.145336,403.734842 170.086961,402.625699 C170.646086,402.306413 171.332961,401.640842 171.435336,400.282699 C171.592399,398.197699 170.725274,397.254842 169.970586,396.831842 L169.970586,396.831842 Z" id="Imported-Layers" fill="#AEAEAE" sketch:type="MSShapeGroup"></path>
            <g id="Imported-Layers-+-Imported-Layers-3" sketch:type="MSLayerGroup" transform="translate(252.000000, 213.000000)">
                <path d="M2.896,5.644 L0,5.644 M4.707,2.509 L3.258,0 M8.327,2.509 L9.775,0 M10.137,5.644 L13.034,5.644 M4.707,8.779 L3.258,11.288" id="Imported-Layers" stroke="#000000" stroke-width="1.5" stroke-linecap="round" sketch:type="MSShapeGroup"></path>
                <path d="M17.028,25.99 L23.518,26.738 L8,8 L8,32.011 L12.698,27.45 L15.145,34.31 C15.469,35.22 16.331,35.831 17.293,35.831 L17.295,35.831 C17.554,35.831 17.812,35.786 18.066,35.696 C18.972,35.37 19.58,34.504 19.58,33.541 C19.58,33.275 19.535,33.016 19.446,32.77 L17.028,25.99 L17.028,25.99 Z" id="Imported-Layers" stroke="#FFFFFF" stroke-width="2" stroke-linejoin="round" fill="#000000" filter="url(#filter-2)" sketch:type="MSShapeGroup"></path>
            </g>
        </g>
    </g>
</svg>