<?xml version="1.0" encoding="UTF-8" standalone="no"?>
<svg width="840px" height="500px" viewBox="0 0 840 500" version="1.1" xmlns="http://www.w3.org/2000/svg" xmlns:xlink="http://www.w3.org/1999/xlink" xmlns:sketch="http://www.bohemiancoding.com/sketch/ns">
    <!-- Generator: Sketch 3.1 (8751) - http://www.bohemiancoding.com/sketch -->
    <title>gs-search-settings</title>
    <desc>Created with Sketch.</desc>
    <defs>
        <rect id="path-1" x="0" y="0" width="40" height="40" rx="4"></rect>
    </defs>
    <g id="Page-1" stroke="none" stroke-width="1" fill="none" fill-rule="evenodd" sketch:type="MSPage">
        <g id="gs-search-settings" sketch:type="MSArtboardGroup">
            <rect id="Rectangle-25" fill="#FFFFFF" sketch:type="MSShapeGroup" x="130" y="46" width="581" height="408" rx="6"></rect>
            <text id="Búsqueda" sketch:type="MSTextLayer" font-family="Lato" font-size="14" font-weight="normal" fill="#333333">
                <tspan x="390.5" y="74">Búsqueda</tspan>
            </text>
            <rect id="Rectangle-27" fill="#EBEBEB" sketch:type="MSShapeGroup" x="131" y="89" width="579" height="364"></rect>
            <path d="M690.462155,68.000375 L694.696244,63.765934 C695.101252,63.362892 695.101252,62.7068236 694.696244,62.3037816 C694.293235,61.8987395 693.636222,61.8987395 693.233213,62.3037816 L688.999125,66.5382227 L684.765037,62.3037816 C684.361028,61.8987395 683.706015,61.8987395 683.303006,62.3037816 C682.898998,62.7068236 682.898998,63.362892 683.303006,63.765934 L687.537095,68.000375 L683.303006,72.2358162 C682.898998,72.6388582 682.898998,73.2949266 683.303006,73.6989686 C683.504011,73.8999896 683.769016,74 684.034022,74 C684.300027,74 684.563033,73.8999896 684.765037,73.6989686 L688.999125,69.4635275 L693.233213,73.6989686 C693.435217,73.8999896 693.701223,74 693.965228,74 C694.230234,74 694.494239,73.8999896 694.696244,73.6989686 C695.101252,73.2949266 695.101252,72.6388582 694.696244,72.2358162 L690.462155,68.000375" id="Close" fill="#C6C6C6" sketch:type="MSShapeGroup"></path>
            <path d="M155.741526,63.765934 C156.146535,63.362892 156.146535,62.7068236 155.741526,62.3037816 C155.338518,61.8987395 154.681504,61.8987395 154.278496,62.3037816 L149.292277,67.2904156 C148.90021,67.6825154 148.904946,68.3230838 149.292277,68.7105837 L154.278496,73.6989686 C154.4805,73.8999896 154.746505,74 155.010511,74 C155.275516,74 155.539522,73.8999896 155.741526,73.6989686 C156.146535,73.2949266 156.146535,72.6388582 155.741526,72.2358162 L151.507438,68.000375 L155.741526,63.765934 Z" id="Close" fill="#C6C6C6" sketch:type="MSShapeGroup"></path>
            <rect id="Rectangle-4" stroke="#C6C6C6" fill="#FFFFFF" sketch:type="MSShapeGroup" x="229" y="137" width="383" height="269" rx="4"></rect>
            <text id="Documentos" sketch:type="MSTextLayer" font-family="Lato" font-size="14" font-weight="normal" fill="#333333">
                <tspan x="296.5" y="178">Documentos</tspan>
            </text>
            <path d="M131.5,89 L709.49827,89" id="Line" stroke="#C6C6C6" stroke-width="2" stroke-linecap="square" sketch:type="MSShapeGroup"></path>
            <rect id="Rectangle-29" stroke="#C6C6C6" sketch:type="MSShapeGroup" x="140" y="55" width="26" height="26" rx="3"></rect>
            <path d="M230,373.5 L611,373.5" id="Line" stroke="#C6C6C6" stroke-linecap="square" sketch:type="MSShapeGroup"></path>
            <g id="Rectangle-65-+-Group-+-Rectangle-35" sketch:type="MSLayerGroup" transform="translate(593.000000, 56.000000)">
                <path d="M3.999,0 C1.791,0 0,1.784 0,3.99 L0,20.01 C0,22.214 1.798,24 3.999,24 L68.001,24 C70.209,24 72,22.216 72,20.01 L72,3.99 C72,1.786 70.202,0 68.001,0 L3.999,0 Z" id="Imported-Layers" fill="#D5D5D5" sketch:type="MSShapeGroup"></path>
                <rect id="Rectangle-35" stroke="#FFFFFF" fill="#D8D8D8" sketch:type="MSShapeGroup" x="18" y="6" width="2" height="12"></rect>
                <path d="M69,18 C69,19.65 67.65,21 66,21 L42,21 C40.35,21 39,19.65 39,18 L39,6 C39,4.35 40.35,3 42,3 L66,3 C67.65,3 69,4.35 69,6 L69,18" id="Imported-Layers" fill="#FFFFFF" sketch:type="MSShapeGroup"></path>
            </g>
            <g id="Rectangle-65-+-Group-+-Rectangle-35" sketch:type="MSLayerGroup" transform="translate(520.000000, 161.000000)">
                <path d="M3.999,0 C1.791,0 0,1.784 0,3.99 L0,20.01 C0,22.214 1.798,24 3.999,24 L68.001,24 C70.209,24 72,22.216 72,20.01 L72,3.99 C72,1.786 70.202,0 68.001,0 L3.999,0 Z" id="Imported-Layers" fill="#D5D5D5" sketch:type="MSShapeGroup"></path>
                <rect id="Rectangle-35" stroke="#FFFFFF" fill="#D8D8D8" sketch:type="MSShapeGroup" x="18" y="6" width="2" height="12"></rect>
                <path d="M69,18 C69,19.65 67.65,21 66,21 L42,21 C40.35,21 39,19.65 39,18 L39,6 C39,4.35 40.35,3 42,3 L66,3 C67.65,3 69,4.35 69,6 L69,18" id="Imported-Layers" fill="#FFFFFF" sketch:type="MSShapeGroup"></path>
            </g>
            <g id="Rectangle-10-+-Rectangle-4-+-Imported-Layers" sketch:type="MSLayerGroup" transform="translate(244.000000, 153.000000)">
                <mask id="mask-2" sketch:name="Rectangle 10" fill="white">
                    <use xlink:href="#path-1"></use>
                </mask>
                <use id="Rectangle-10" fill="#C87E35" sketch:type="MSShapeGroup" xlink:href="#path-1"></use>
                <rect id="Rectangle-4" fill="#C87E35" sketch:type="MSShapeGroup" mask="url(#mask-2)" x="0" y="0" width="40" height="40" rx="4"></rect>
                <rect id="Rectangle-39" fill="#F0EDE8" sketch:type="MSShapeGroup" mask="url(#mask-2)" x="12" y="8" width="26" height="29">
                    <g transform="translate(25.000000, 22.500000) rotate(-4.000000) translate(-25.000000, -22.500000) "></g>
                </rect>
                <path d="M0.047,9.438 L2.485,7 L13.485,7 L19.422,11.375 L32.172,11.375 C33.547,11.375 35.485,12.5 35.485,14.688 L35.485,36.875 L37.859,39.25 L37.141,39.969 L1.985,39.969 L0,37.984 L0.047,9.438" id="Imported-Layers" fill="#FFBF57" sketch:type="MSShapeGroup" mask="url(#mask-2)"></path>
            </g>
            <g id="Group" sketch:type="MSLayerGroup" transform="translate(235.000000, 378.000000)">
                <rect id="Rectangle-30" stroke="#C6C6C6" sketch:type="MSShapeGroup" x="0" y="0" width="43" height="22" rx="3"></rect>
                <path d="M21.5,1.5 L21.5,21.5237961" id="Line-3" stroke="#C6C6C6" stroke-linecap="square" sketch:type="MSShapeGroup"></path>
                <g id="layer12-2" transform="translate(6.000000, 6.000000)" fill="#BEBEBE" sketch:type="MSShapeGroup">
                    <path d="M4.0002,0 L4.0002,4 L0.0002,4 L0.0002,6 L4.0002,6 L4.0002,10 L6.0002,10 L6.0002,6 L10.0002,6 L10.0002,4 L6.0002,4 L6.0002,0 L4.0002,0 L4.0002,0 Z" id="rect31992"></path>
                </g>
                <g id="layer12-3" transform="translate(27.000000, 10.000000)" fill="#BEBEBE" sketch:type="MSShapeGroup">
                    <rect id="rect31984" x="0" y="0" width="9.9996014" height="2.0002136"></rect>
                </g>
            </g>
            <rect id="Rectangle-25" stroke="#C6C6C6" stroke-width="2" sketch:type="MSShapeGroup" x="130" y="46" width="581" height="408" rx="6"></rect>
        </g>
    </g>
</svg>