<?xml version="1.0" encoding="UTF-8" standalone="no"?>
<svg width="840px" height="350px" viewBox="0 0 840 350" version="1.1" xmlns="http://www.w3.org/2000/svg" xmlns:xlink="http://www.w3.org/1999/xlink" xmlns:sketch="http://www.bohemiancoding.com/sketch/ns">
    <!-- Generator: Sketch 3.1 (8751) - http://www.bohemiancoding.com/sketch -->
    <title>gs-web-browser1-firefox</title>
    <desc>Created with Sketch.</desc>
    <defs>
        <path id="path-1" d="M0,0 L5,0 L5,3 L0,3"></path>
        <path id="path-3" d="M0,0 L9,0 L9,5 L0,5"></path>
        <path id="path-5" d="M0.06,0 L13.001,0 L13.001,5.003 L0.06,5.003"></path>
        <path id="path-7" d="M0,0 L3,0 L3,5 L0,5"></path>
        <path id="path-9" d="M0,0 L5,0 L5,9 L0,9"></path>
        <path id="path-11" d="M-0.003,0.006 L5,0.006 L5,13.002 L-0.003,13.002"></path>
        <rect id="path-13" x="0" y="0" width="40" height="40" rx="4"></rect>
        <filter x="-50%" y="-50%" width="200%" height="200%" filterUnits="objectBoundingBox" id="filter-15">
            <feOffset dx="0" dy="0" in="SourceAlpha" result="shadowOffsetOuter1"></feOffset>
            <feGaussianBlur stdDeviation="2" in="shadowOffsetOuter1" result="shadowBlurOuter1"></feGaussianBlur>
            <feColorMatrix values="0 0 0 0 1   0 0 0 0 1   0 0 0 0 1  0 0 0 0.35 0" in="shadowBlurOuter1" type="matrix" result="shadowMatrixOuter1"></feColorMatrix>
            <feMerge>
                <feMergeNode in="shadowMatrixOuter1"></feMergeNode>
                <feMergeNode in="SourceGraphic"></feMergeNode>
            </feMerge>
        </filter>
        <linearGradient x1="75.8361055%" y1="71.8587175%" x2="-6.94165568%" y2="11.0262252%" id="linearGradient-16">
            <stop stop-color="#000000" stop-opacity="0" offset="0%"></stop>
            <stop stop-color="#000000" stop-opacity="0.15" offset="100%"></stop>
        </linearGradient>
        <filter x="-50%" y="-50%" width="200%" height="200%" filterUnits="objectBoundingBox" id="filter-17">
            <feMorphology radius="1" in="SourceAlpha" operator="dilate" result="shadowSpreadOuter1"></feMorphology>
            <feOffset dx="0" dy="1" in="shadowSpreadOuter1" result="shadowOffsetOuter1"></feOffset>
            <feGaussianBlur stdDeviation="2" in="shadowOffsetOuter1" result="shadowBlurOuter1"></feGaussianBlur>
            <feColorMatrix values="0 0 0 0 0   0 0 0 0 0   0 0 0 0 0  0 0 0 0.21 0" in="shadowBlurOuter1" type="matrix" result="shadowMatrixOuter1"></feColorMatrix>
            <feMerge>
                <feMergeNode in="shadowMatrixOuter1"></feMergeNode>
                <feMergeNode in="SourceGraphic"></feMergeNode>
            </feMerge>
        </filter>
        <filter x="-50%" y="-50%" width="200%" height="200%" filterUnits="objectBoundingBox" id="filter-18">
            <feMorphology radius="1" in="SourceAlpha" operator="dilate" result="shadowSpreadOuter1"></feMorphology>
            <feOffset dx="0" dy="1" in="shadowSpreadOuter1" result="shadowOffsetOuter1"></feOffset>
            <feGaussianBlur stdDeviation="2" in="shadowOffsetOuter1" result="shadowBlurOuter1"></feGaussianBlur>
            <feColorMatrix values="0 0 0 0 0   0 0 0 0 0   0 0 0 0 0  0 0 0 0.21 0" in="shadowBlurOuter1" type="matrix" result="shadowMatrixOuter1"></feColorMatrix>
            <feMerge>
                <feMergeNode in="shadowMatrixOuter1"></feMergeNode>
                <feMergeNode in="SourceGraphic"></feMergeNode>
            </feMerge>
        </filter>
    </defs>
    <g id="Page-1" stroke="none" stroke-width="1" fill="none" fill-rule="evenodd" sketch:type="MSPage">
        <g id="gs-web-browser1-firefox" sketch:type="MSArtboardGroup">
            <g id="Oval-1-+-1" sketch:type="MSLayerGroup" transform="translate(56.000000, 27.000000)">
                <circle id="Oval-1" fill="#B9B9B9" sketch:type="MSShapeGroup" cx="18" cy="18" r="18"></circle>
                <text id="1" sketch:type="MSTextLayer" font-family="Lato" font-size="18" font-weight="normal" sketch:alignment="middle" fill="#FFFFFF">
                    <tspan x="12.28" y="24">1</tspan>
                </text>
            </g>
            <g id="Oval-1-+-2" sketch:type="MSLayerGroup" transform="translate(457.000000, 27.000000)">
                <circle id="Oval-1" fill="#B9B9B9" sketch:type="MSShapeGroup" cx="18" cy="18" r="18"></circle>
                <text id="2" sketch:type="MSTextLayer" font-family="Lato" font-size="18" font-weight="normal" sketch:alignment="middle" fill="#FFFFFF">
                    <tspan x="12.28" y="24">2</tspan>
                </text>
            </g>
            <rect id="Rectangle-1" stroke="#C6C6C6" stroke-width="2" stroke-dasharray="3,3" fill="#EFEFEF" sketch:type="MSShapeGroup" x="104" y="27" width="256.684418" height="168"></rect>
            <rect id="Rectangle-1" stroke="#C6C6C6" stroke-width="2" stroke-dasharray="3,3" fill="#EFEFEF" sketch:type="MSShapeGroup" x="507" y="27" width="256.684418" height="168"></rect>
            <rect id="Rectangle-3" fill="#333333" sketch:type="MSShapeGroup" x="105" y="164" width="255" height="30"></rect>
            <path d="M105.199997,195.5 L361.399997,195.5 L361.399997,26.5" id="Rectangle-1" stroke="#999999" stroke-width="2" sketch:type="MSShapeGroup"></path>
            <text id="es" sketch:type="MSTextLayer" font-family="Lato" font-size="15" font-weight="normal" fill="#666666">
                <tspan x="231.5" y="183">es</tspan>
            </text>
            <text id="14:20" sketch:type="MSTextLayer" font-family="Lato" font-size="14" font-weight="normal" fill="#666666">
                <tspan x="183.5" y="184">14:20</tspan>
            </text>
            <g id="Imported-Layers" sketch:type="MSLayerGroup" transform="translate(290.000000, 172.000000)">
                <g id="Group-3" transform="translate(4.000000, 6.000000)">
                    <mask id="mask-2" sketch:name="Clip 2" fill="white">
                        <use xlink:href="#path-1"></use>
                    </mask>
                    <g id="Clip-2"></g>
                    <path d="M-0.269,2.932 C-0.176,3.476 0.341,3.842 0.885,3.748 C1.1,3.712 1.297,3.605 1.446,3.446 C2.041,2.852 2.96,2.852 3.554,3.446 C3.947,3.839 4.583,3.839 4.976,3.446 C5.368,3.054 5.368,2.417 4.976,2.025 C3.617,0.666 1.383,0.666 0.025,2.025 C-0.22,2.258 -0.331,2.599 -0.269,2.932" id="Fill-1" fill="#666666" sketch:type="MSShapeGroup" mask="url(#mask-2)"></path>
                </g>
                <g id="Group-6" transform="translate(2.000000, 2.000000)">
                    <mask id="mask-4" sketch:name="Clip 5" fill="white">
                        <use xlink:href="#path-3"></use>
                    </mask>
                    <g id="Clip-5"></g>
                    <path d="M-0.407,4.725 C-0.357,5.275 0.13,5.68 0.68,5.63 C0.924,5.608 1.151,5.497 1.319,5.318 C3.084,3.552 5.916,3.552 7.681,5.318 C8.017,5.757 8.644,5.841 9.083,5.505 C9.522,5.17 9.606,4.542 9.27,4.103 L9.083,3.916 C6.553,1.386 2.447,1.386 -0.083,3.916 C-0.309,4.122 -0.428,4.42 -0.407,4.725" id="Fill-4" fill="#666666" sketch:type="MSShapeGroup" mask="url(#mask-4)"></path>
                </g>
                <path d="M8,11.5 C8,12.328 7.328,13 6.5,13 C5.672,13 5,12.328 5,11.5 C5,10.672 5.672,10 6.5,10 C7.328,10 8,10.672 8,11.5" id="Fill-7" fill="#666666" sketch:type="MSShapeGroup"></path>
                <g id="Group-10">
                    <mask id="mask-6" sketch:name="Clip 9" fill="white">
                        <use xlink:href="#path-5"></use>
                    </mask>
                    <g id="Clip-9"></g>
                    <path d="M6.502,0.974 C4.162,0.974 1.823,1.817 0.005,3.505 L0.005,5.003 L1.336,5.003 C2.783,3.643 4.642,2.964 6.502,2.964 C8.361,2.964 10.22,3.643 11.667,5.003 L13.001,5.003 L13.001,3.509 C11.183,1.819 8.842,0.974 6.502,0.974" id="Fill-8" fill="#666666" sketch:type="MSShapeGroup" mask="url(#mask-6)"></path>
                </g>
            </g>
            <g id="Imported-Layers" sketch:type="MSLayerGroup" transform="translate(261.000000, 172.000000)">
                <g id="Group-3" transform="translate(7.000000, 4.000000)">
                    <mask id="mask-8" sketch:name="Clip 2" fill="white">
                        <use xlink:href="#path-7"></use>
                    </mask>
                    <g id="Clip-2"></g>
                    <path d="M0.069,-0.269 C-0.476,-0.176 -0.842,0.341 -0.748,0.885 C-0.711,1.1 -0.605,1.297 -0.446,1.446 C0.148,2.04 0.148,2.96 -0.446,3.554 C-0.839,3.947 -0.839,4.583 -0.446,4.976 C-0.054,5.368 0.583,5.368 0.975,4.976 C2.334,3.617 2.334,1.383 0.975,0.025 C0.742,-0.221 0.401,-0.331 0.069,-0.269" id="Fill-1" fill="#666666" sketch:type="MSShapeGroup" mask="url(#mask-8)"></path>
                </g>
                <g id="Group-6" transform="translate(9.000000, 2.000000)">
                    <mask id="mask-10" sketch:name="Clip 5" fill="white">
                        <use xlink:href="#path-9"></use>
                    </mask>
                    <g id="Clip-5"></g>
                    <path d="M0.274,-0.407 C-0.276,-0.357 -0.681,0.13 -0.63,0.68 C-0.608,0.924 -0.497,1.151 -0.319,1.318 C1.447,3.084 1.447,5.916 -0.319,7.681 C-0.757,8.017 -0.841,8.644 -0.505,9.083 C-0.17,9.522 0.458,9.606 0.897,9.27 C0.967,9.216 1.03,9.154 1.083,9.083 C3.613,6.553 3.613,2.447 1.083,-0.083 C0.877,-0.309 0.579,-0.428 0.274,-0.407" id="Fill-4" fill="#666666" sketch:type="MSShapeGroup" mask="url(#mask-10)"></path>
                </g>
                <g id="Group-9" transform="translate(11.000000, 0.000000)">
                    <mask id="mask-12" sketch:name="Clip 8" fill="white">
                        <use xlink:href="#path-11"></use>
                    </mask>
                    <g id="Clip-8"></g>
                    <path d="M0.167,-0.499 C-0.351,-0.305 -0.613,0.271 -0.42,0.788 C-0.366,0.933 -0.279,1.063 -0.167,1.168 C2.771,4.105 2.771,8.897 -0.167,11.835 C-0.558,12.226 -0.558,12.86 -0.167,13.252 C0.225,13.643 0.859,13.643 1.25,13.252 C4.952,9.55 4.952,3.453 1.25,-0.249 C0.973,-0.543 0.545,-0.642 0.167,-0.498 L0.167,-0.499" id="Fill-7" fill="#666666" sketch:type="MSShapeGroup" mask="url(#mask-12)"></path>
                </g>
                <path d="M0,4 L2.484,4 L5.453,1 L6,1.016 L6,12.016 L5.525,12.016 L2.484,9 L0,9 L0,4" id="Fill-10" fill="#666666" sketch:type="MSShapeGroup"></path>
            </g>
            <path d="M326.316009,188.730444 C330.722125,187.68564 334,183.725615 334,179 C334,173.477153 329.522847,169 324,169 C318.477153,169 314,173.477153 314,179 C314,184.329065 318.16848,188.684528 323.422661,188.983612 L323.421,181.603 L321,181.603 L321,178.791 L323.421,178.791 L323.421,176.717 C323.421,174.311 324.886,173 327.027,173 C328.052,173 328.933,173.077 329.19,173.111 L329.19,175.626 L327.706,175.627 C326.542,175.627 326.316,176.181 326.316,176.996 L326.316,178.791 L329.092,178.791 L328.731,181.603 L326.316,181.603 L326.316009,188.730444 Z" id="Oval-5" fill="#666666" sketch:type="MSShapeGroup"></path>
            <path d="M691,46.001 L691,194 L763,194 L763,40 L697,40 C693.686,40 691,42.689 691,46.001" id="Imported-Layers" fill="#797979" sketch:type="MSShapeGroup"></path>
            <path d="M764,28.5 L764,193.527267" id="Line" stroke="#999999" stroke-width="2" stroke-linecap="square" sketch:type="MSShapeGroup"></path>
            <g id="hot-corner" sketch:type="MSLayerGroup" transform="translate(343.000000, 177.000000)" fill="#FFFFFF">
                <path d="M17,12 C14.2,12 12,14.2 12,17 L17,17 L17,12 L17,12 Z" id="Shape" sketch:type="MSShapeGroup"></path>
                <path d="M17,1 L17,0 C7.6,0 0,7.6 0,17 L1,17 C1,8.2 8.2,1 17,1 L17,1 Z" id="Shape" sketch:type="MSShapeGroup"></path>
                <path d="M17,8 L17,7 C11.5,7 7,11.5 7,17 L8,17 C8,12 12,8 17,8 L17,8 Z" id="Shape" sketch:type="MSShapeGroup"></path>
            </g>
            <g id="Rectangle-10-+-Rectangle-4-+-Imported-Layers" sketch:type="MSLayerGroup" transform="translate(707.000000, 109.000000)">
                <mask id="mask-14" sketch:name="Rectangle 10" fill="white">
                    <use xlink:href="#path-13"></use>
                </mask>
                <use id="Rectangle-10" fill="#C87E35" sketch:type="MSShapeGroup" xlink:href="#path-13"></use>
                <rect id="Rectangle-4" fill="#BABABA" sketch:type="MSShapeGroup" mask="url(#mask-14)" x="0" y="0" width="40" height="40" rx="4"></rect>
                <rect id="Rectangle-39" fill="#EAEAEA" sketch:type="MSShapeGroup" mask="url(#mask-14)" x="12" y="8" width="26" height="29">
                    <g transform="translate(25.000000, 22.500000) rotate(-4.000000) translate(-25.000000, -22.500000) "></g>
                </rect>
                <path d="M0.047,9.438 L2.485,7 L13.485,7 L19.422,11.375 L32.172,11.375 C33.547,11.375 35.485,12.5 35.485,14.688 L35.485,36.875 L37.859,39.25 L37.141,39.969 L1.985,39.969 L0,37.984 L0.047,9.438" id="Imported-Layers" fill="#D8D8D8" sketch:type="MSShapeGroup" mask="url(#mask-14)"></path>
            </g>
            <g id="Rectangle-10-+-Oval-4" sketch:type="MSLayerGroup" transform="translate(707.000000, 56.000000)">
                <rect id="Rectangle-10" fill="#FF8C0F" sketch:type="MSShapeGroup" x="0" y="0" width="40" height="40" rx="4"></rect>
                <circle id="Oval-4" fill="#FFE97A" filter="url(#filter-15)" sketch:type="MSShapeGroup" cx="20" cy="20" r="13.4883721"></circle>
            </g>
            <g id="Group" sketch:type="MSLayerGroup" transform="translate(713.000000, 162.000000)" fill="#C6C6C6">
                <rect id="Rectangle-49" sketch:type="MSShapeGroup" x="0" y="0" width="6" height="6"></rect>
                <rect id="Rectangle-49" sketch:type="MSShapeGroup" x="0" y="10" width="6" height="6"></rect>
                <rect id="Rectangle-50" sketch:type="MSShapeGroup" x="11" y="0" width="6" height="6"></rect>
                <rect id="Rectangle-50" sketch:type="MSShapeGroup" x="11" y="10" width="6" height="6"></rect>
                <rect id="Rectangle-50" sketch:type="MSShapeGroup" x="22" y="0" width="6" height="6"></rect>
                <rect id="Rectangle-50" sketch:type="MSShapeGroup" x="22" y="10" width="6" height="6"></rect>
                <rect id="Rectangle-53" sketch:type="MSShapeGroup" x="0" y="20" width="6" height="6"></rect>
                <rect id="Rectangle-52" sketch:type="MSShapeGroup" x="11" y="20" width="6" height="6"></rect>
                <rect id="Rectangle-51" sketch:type="MSShapeGroup" x="22" y="20" width="6" height="6"></rect>
            </g>
            <g id="Imported-Layers" sketch:type="MSLayerGroup" transform="translate(601.000000, 233.000000)">
                <path d="M39.767,14.798 L39.767,14.845 C39.586,14.838 39.403,14.838 39.233,14.834 C39.225,14.833 39.216,14.833 39.208,14.834 L39.208,14.822 C24.783,14.822 18.014,21.759 15.407,28.381 C13.714,32.685 14.364,37.762 15.039,42.907 C15.29,44.821 15.604,46.868 15.954,48.978 C15.975,49.563 15.993,50.131 15.979,50.599 C15.783,57.481 13.239,65.92 13.387,71.112 C13.661,80.725 19.144,87.07 26.437,90.313 C26.552,90.364 26.664,90.418 26.78,90.468 C35.129,94.275 45.014,94.551 53.02,89.705 C59.935,86.252 64.965,80.012 64.965,71.112 C64.965,65.918 62.568,57.481 62.372,50.599 C62.293,47.806 62.957,42.239 62.957,42.239 C63.581,39.475 64.031,36.505 63.91,33.617 C63.908,33.577 63.912,33.537 63.91,33.498 C63.864,32.026 63.649,30.611 63.224,29.288 C63.176,29.139 63.125,28.993 63.071,28.846 C63.03,28.722 63.001,28.6 62.957,28.477 C62.71,27.793 62.378,27.099 61.991,26.414 C61.964,26.361 61.93,26.311 61.902,26.259 C57.087,17.179 48.887,14.798 39.767,14.798 L39.767,14.798 Z" id="Fill-1" fill="#FFFFFF" sketch:type="MSShapeGroup"></path>
                <path d="M39.767,14.798 L39.767,14.845 C39.586,14.838 39.403,14.838 39.233,14.834 C39.225,14.833 39.216,14.833 39.208,14.834 L39.208,14.822 C24.783,14.822 18.014,21.759 15.407,28.381 C13.714,32.685 14.364,37.762 15.039,42.907 C15.29,44.821 15.604,46.868 15.954,48.978 C15.975,49.563 15.993,50.131 15.979,50.599 C15.783,57.481 13.239,65.92 13.387,71.112 C13.661,80.725 19.144,87.07 26.437,90.313 C26.552,90.364 26.664,90.418 26.78,90.468 C35.129,94.275 45.014,94.551 53.02,89.705 C59.935,86.252 64.965,80.012 64.965,71.112 C64.965,65.918 62.568,57.481 62.372,50.599 C62.293,47.806 62.957,42.239 62.957,42.239 C63.581,39.475 64.031,36.505 63.91,33.617 C63.908,33.577 63.912,33.537 63.91,33.498 C63.864,32.026 63.649,30.611 63.224,29.288 C63.176,29.139 63.125,28.993 63.071,28.846 C63.03,28.722 63.001,28.6 62.957,28.477 C62.71,27.793 62.378,27.099 61.991,26.414 C61.964,26.361 61.93,26.311 61.902,26.259 C57.087,17.179 48.887,14.798 39.767,14.798 L39.767,14.798 Z" id="Stroke-2" stroke="#000000" stroke-width="5" stroke-linejoin="round" sketch:type="MSShapeGroup"></path>
                <path d="M60.972,43.274 C61.853,38.593 62.696,33.251 61.008,29.14 C56.739,18.746 48.712,16.105 39.713,16.105 L39.198,16.124 C25.902,16.124 19.662,22.83 17.26,29.232 C17.26,29.232 16.298,38.301 16.92,43.274" id="Stroke-3" stroke="#000000" stroke-width="0.375" sketch:type="MSShapeGroup"></path>
                <path d="M39.173,14.835 C24.779,14.849 18.024,21.751 15.421,28.367 C13.727,32.67 14.364,37.777 15.039,42.921 C15.256,44.576 15.551,46.346 15.845,48.154 C16.16,48.16 16.452,48.195 16.778,48.195 C23.76,46.485 30.266,44.919 39.173,44.925 L39.173,14.835" id="Fill-4" fill="#000000" sketch:type="MSShapeGroup"></path>
                <path d="M39.173,14.818 L39.173,44.908" id="Stroke-5" stroke="#000000" stroke-width="0.375" sketch:type="MSShapeGroup"></path>
                <path d="M38.162,23.163 L40.184,23.163 C41.017,23.163 41.693,23.815 41.693,24.618 L41.693,36.738 C41.693,37.542 41.017,38.193 40.184,38.193 L38.162,38.193 C37.328,38.193 36.653,37.542 36.653,36.738 L36.653,24.618 C36.653,23.815 37.328,23.163 38.162,23.163 L38.162,23.163 Z" id="Fill-6" fill="#FFFFFF" sketch:type="MSShapeGroup"></path>
                <path d="M38.162,23.163 L40.184,23.163 C41.017,23.163 41.693,23.815 41.693,24.618 L41.693,36.738 C41.693,37.542 41.017,38.193 40.184,38.193 L38.162,38.193 C37.328,38.193 36.653,37.542 36.653,36.738 L36.653,24.618 C36.653,23.815 37.328,23.163 38.162,23.163 L38.162,23.163 Z" id="Stroke-7" stroke="#000000" stroke-width="0.75" stroke-linecap="square" stroke-linejoin="round" sketch:type="MSShapeGroup"></path>
                <path d="M16.778,48.179 C23.76,46.468 30.261,44.902 39.163,44.908 C48.064,44.902 54.566,46.468 61.548,48.179" id="Stroke-8" stroke="#000000" stroke-width="0.375" sketch:type="MSShapeGroup"></path>
                <path d="M6.594,38.192 L-0.085,38.192 M7.704,29.764 L1.252,28.035 M10.957,21.911 L5.172,18.571 M16.132,15.167 L11.408,10.443 M22.876,9.992 L19.536,4.207 M30.73,6.739 L29.001,0.286 M7.704,46.621 L1.252,48.349" id="Stroke-9" stroke="#000000" stroke-width="0.598" stroke-linecap="round" sketch:type="MSShapeGroup"></path>
            </g>
            <g id="Rectangle-58-+-Imported-Layers-+-Imported-Layers" sketch:type="MSLayerGroup" transform="translate(168.000000, 218.000000)">
                <path d="M128.933924,58.063739 L43.6350322,2.45922784 L2.25694621,68.7586663 L88.1885009,125.38588 L128.933924,58.063739 Z" id="Rectangle-58" fill="url(#linearGradient-16)" sketch:type="MSShapeGroup" transform="translate(65.595435, 63.922554) rotate(-182.000000) translate(-65.595435, -63.922554) "></path>
                <g id="Imported-Layers" transform="translate(1.000000, 2.000000)" sketch:type="MSShapeGroup">
                    <path d="M26.201,0.5 L26.201,0.547 C26.024,0.539 25.845,0.539 25.679,0.535 L25.654,0.535 L25.654,0.523 C11.556,0.523 4.939,7.305 2.391,13.779 C0.736,17.986 1.372,22.95 2.031,27.979 C2.276,29.85 2.583,31.851 2.925,33.913 C2.946,34.486 2.963,35.041 2.95,35.499 C2.759,42.226 0.272,50.476 0.417,55.551 C0.684,64.949 6.044,71.152 13.172,74.322 C13.284,74.371 13.394,74.425 13.507,74.473 C21.668,78.194 31.329,78.464 39.155,73.727 C45.914,70.352 50.829,64.252 50.829,55.551 C50.829,50.474 48.487,42.226 48.296,35.499 C48.218,32.768 48.867,27.326 48.867,27.326 C49.478,24.624 49.917,21.72 49.799,18.897 C49.797,18.859 49.801,18.819 49.799,18.781 C49.754,17.342 49.544,15.959 49.128,14.665 C49.081,14.519 49.031,14.377 48.979,14.234 C48.939,14.113 48.911,13.993 48.867,13.872 C48.626,13.204 48.301,12.526 47.923,11.855 C47.896,11.804 47.863,11.755 47.836,11.704 C43.13,2.827 35.115,0.5 26.201,0.5 L26.201,0.5 Z" id="Fill-1" fill="#FFFFFF"></path>
                    <path d="M46.928,28.338 C47.788,23.762 48.612,18.54 46.962,14.521 C42.79,4.359 34.944,1.778 26.149,1.778 L25.645,1.797 C12.649,1.797 6.55,8.353 4.202,14.611 C2.676,18.677 3.262,23.476 3.87,28.338 M25.62,0.52 L25.62,29.935" id="Stroke-3" stroke="#DBDBDB" stroke-width="0.384"></path>
                    <path d="M24.673,8.694 L26.567,8.694 C27.396,8.694 28.069,9.426 28.069,10.33 L28.069,21.75 C28.069,22.654 27.396,23.386 26.567,23.386 L24.673,23.386 C23.844,23.386 23.171,22.654 23.171,21.75 L23.171,10.33 C23.171,9.426 23.844,8.694 24.673,8.694 L24.673,8.694 Z" id="Fill-4" fill="#FFFFFF"></path>
                    <path d="M24.673,8.694 L26.567,8.694 C27.396,8.694 28.069,9.426 28.069,10.33 L28.069,21.75 C28.069,22.654 27.396,23.386 26.567,23.386 L24.673,23.386 C23.844,23.386 23.171,22.654 23.171,21.75 L23.171,10.33 C23.171,9.426 23.844,8.694 24.673,8.694 L24.673,8.694 Z" id="Stroke-5" stroke="#DBDBDB" stroke-width="0.768" stroke-linecap="square" stroke-linejoin="round"></path>
                    <path d="M3.731,33.132 C10.556,31.461 16.91,29.929 25.61,29.935 C34.311,29.929 40.665,31.461 47.49,33.132" id="Stroke-6" stroke="#DBDBDB" stroke-width="0.384"></path>
                    <path d="M26.201,0.5 L26.201,0.547 C26.024,0.539 25.845,0.539 25.679,0.535 L25.654,0.535 L25.654,0.523 C11.556,0.523 4.939,7.305 2.391,13.779 C0.736,17.986 1.372,22.95 2.031,27.979 C2.276,29.85 2.583,31.851 2.925,33.913 C2.946,34.486 2.963,35.041 2.95,35.499 C2.759,42.226 0.272,50.476 0.417,55.551 C0.684,64.949 6.044,71.152 13.172,74.322 C13.284,74.371 13.394,74.425 13.507,74.473 C21.668,78.194 31.329,78.464 39.155,73.727 C45.914,70.352 50.829,64.252 50.829,55.551 C50.829,50.474 48.487,42.226 48.296,35.499 C48.218,32.768 48.867,27.326 48.867,27.326 C49.478,24.624 49.917,21.72 49.799,18.897 C49.797,18.859 49.801,18.819 49.799,18.781 C49.754,17.342 49.544,15.959 49.128,14.665 C49.081,14.519 49.031,14.377 48.979,14.234 C48.939,14.113 48.911,13.993 48.867,13.872 C48.626,13.204 48.301,12.526 47.923,11.855 C47.896,11.804 47.863,11.755 47.836,11.704 C43.13,2.827 35.115,0.5 26.201,0.5 L26.201,0.5 Z" id="Stroke-2" stroke="#DCDCDC" stroke-width="5" stroke-linejoin="round"></path>
                </g>
                <g id="Imported-Layers" transform="translate(78.000000, 48.000000)" sketch:type="MSShapeGroup">
                    <path d="M25.679,-0.465 C11.556,-0.477 4.939,6.305 2.391,12.779 C0.736,16.986 1.372,21.95 2.031,26.979 C2.276,28.85 2.583,30.851 2.925,32.913 C2.946,33.486 2.963,34.041 2.95,34.499 C2.759,41.226 0.272,49.476 0.417,54.551 C0.684,63.949 6.044,70.152 13.172,73.322 C13.284,73.371 13.394,73.425 13.507,73.473 C21.668,77.194 31.329,77.464 39.155,72.727 C45.914,69.352 50.829,63.252 50.829,54.551 C50.829,49.474 48.487,41.226 48.296,34.499 C48.218,31.768 48.867,26.326 48.867,26.326 C49.478,23.624 49.917,20.72 49.799,17.897 C49.754,16.342 49.544,14.959 49.128,13.665 C49.081,13.519 49.031,13.377 48.979,13.234 C48.939,13.113 48.911,12.993 48.867,12.872 C48.626,12.204 48.301,11.526 47.923,10.855 C43.13,1.827 35.115,-0.5 26.201,-0.5 C26.024,-0.461 25.845,-0.461 25.679,-0.465 Z" id="Fill-1" fill="#FFFFFF"></path>
                    <path d="M26.201,-0.5 L26.201,-0.453 C26.024,-0.461 25.845,-0.461 25.679,-0.465 L25.654,-0.465 L25.654,-0.477 C11.556,-0.477 4.939,6.305 2.391,12.779 C0.736,16.986 1.372,21.95 2.031,26.979 C2.276,28.85 2.583,30.851 2.925,32.913 C2.946,33.486 2.963,34.041 2.95,34.499 C2.759,41.226 0.272,49.476 0.417,54.551 C0.684,63.949 6.044,70.152 13.172,73.322 C13.284,73.371 13.394,73.425 13.507,73.473 C21.668,77.194 31.329,77.464 39.155,72.727 C45.914,69.352 50.829,63.252 50.829,54.551 C50.829,49.474 48.487,41.226 48.296,34.499 C48.218,31.768 48.867,26.326 48.867,26.326 C49.478,23.624 49.917,20.72 49.799,17.897 C49.797,17.859 49.801,17.819 49.799,17.781 C49.754,16.342 49.544,14.959 49.128,13.665 C49.081,13.519 49.031,13.377 48.979,13.234 C48.939,13.113 48.911,12.993 48.867,12.872 C48.626,12.204 48.301,11.526 47.923,10.855 C47.896,10.804 47.863,10.755 47.836,10.704 C43.13,1.827 35.115,-0.5 26.201,-0.5 L26.201,-0.5 Z" id="Stroke-2" stroke="#000000" stroke-width="5" stroke-linejoin="round"></path>
                    <path d="M46.928,27.338 C47.788,22.762 48.612,17.54 46.962,13.521 C42.79,3.359 34.944,0.778 26.149,0.778 L25.645,0.797 C12.649,0.797 6.55,7.353 4.202,13.611 C2.676,17.677 3.262,22.476 3.87,27.338 M25.62,-0.48 L25.62,28.935" id="Stroke-3" stroke="#000000" stroke-width="0.384"></path>
                    <path d="M24.673,7.694 L26.567,7.694 C27.396,7.694 28.069,8.426 28.069,9.33 L28.069,20.75 C28.069,21.654 27.396,22.386 26.567,22.386 L24.673,22.386 C23.844,22.386 23.171,21.654 23.171,20.75 L23.171,9.33 C23.171,8.426 23.844,7.694 24.673,7.694 L24.673,7.694 Z" id="Fill-4" fill="#FFFFFF"></path>
                    <path d="M24.673,7.694 L26.567,7.694 C27.396,7.694 28.069,8.426 28.069,9.33 L28.069,20.75 C28.069,21.654 27.396,22.386 26.567,22.386 L24.673,22.386 C23.844,22.386 23.171,21.654 23.171,20.75 L23.171,9.33 C23.171,8.426 23.844,7.694 24.673,7.694 L24.673,7.694 Z" id="Stroke-5" stroke="#000000" stroke-width="0.768" stroke-linecap="square" stroke-linejoin="round"></path>
                    <path d="M3.731,32.132 C10.556,30.461 16.91,28.929 25.61,28.935 C34.311,28.929 40.665,30.461 47.49,32.132" id="Stroke-6" stroke="#000000" stroke-width="0.384"></path>
                </g>
            </g>
            <path d="M354.533247,199.326719 L229.935428,104.092423 L229.377871,128.733957 L351.672387,216.739689 L354.533247,199.326719 Z" id="Rectangle-59" fill="url(#linearGradient-16)" sketch:type="MSShapeGroup" transform="translate(291.955559, 160.416056) rotate(-182.000000) translate(-291.955559, -160.416056) "></path>
            <path d="M365.028,207.99 L371.518,208.738 L356,190 L356,214.011 L360.698,209.45 L363.145,216.31 C363.469,217.22 364.331,217.831 365.293,217.831 L365.295,217.831 C365.554,217.831 365.812,217.786 366.066,217.696 C366.972,217.37 367.58,216.504 367.58,215.541 C367.58,215.275 367.535,215.016 367.446,214.77 L365.028,207.99 L365.028,207.99 Z" id="Imported-Layers" stroke="#FFFFFF" stroke-width="2" stroke-linejoin="round" fill="#000000" filter="url(#filter-17)" sketch:type="MSShapeGroup"></path>
            <g id="Imported-Layers-+-Imported-Layers" sketch:type="MSLayerGroup" transform="translate(733.000000, 79.000000)">
                <path d="M2.896,5.644 L0,5.644 M4.707,2.509 L3.258,0 M8.327,2.509 L9.775,0 M10.137,5.644 L13.034,5.644 M4.707,8.779 L3.258,11.288" id="Imported-Layers" stroke="#000000" stroke-width="1.5" stroke-linecap="round" sketch:type="MSShapeGroup"></path>
                <path d="M17.028,25.99 L23.518,26.738 L8,8 L8,32.011 L12.698,27.45 L15.145,34.31 C15.469,35.22 16.331,35.831 17.293,35.831 L17.295,35.831 C17.554,35.831 17.812,35.786 18.066,35.696 C18.972,35.37 19.58,34.504 19.58,33.541 C19.58,33.275 19.535,33.016 19.446,32.77 L17.028,25.99 L17.028,25.99 Z" id="Imported-Layers" stroke="#FFFFFF" stroke-width="2" stroke-linejoin="round" fill="#000000" filter="url(#filter-18)" sketch:type="MSShapeGroup"></path>
            </g>
            <path d="M242,122.698223 L229,107 L229,127.156712 L233.262629,123.018529 L236.101525,130.977813 C236.325422,131.606602 236.915698,132.001073 237.545612,131.999998 C237.717017,131.999998 237.892707,131.969902 238.06197,131.90971 C238.68974,131.683991 239.080758,131.091747 239.080758,130.459734 C239.080758,130.287758 239.051834,130.112557 238.99077,129.941655 L236.166873,122.02644 L242,122.698223 Z" id="Imported-Layers" stroke="#D2D2D2" stroke-width="2" stroke-linejoin="round" fill="#FFFFFF" sketch:type="MSShapeGroup"></path>
        </g>
    </g>
</svg>