<?xml version="1.0" encoding="UTF-8" standalone="no"?>
<svg width="840px" height="1350px" viewBox="0 0 840 1350" version="1.1" xmlns="http://www.w3.org/2000/svg" xmlns:xlink="http://www.w3.org/1999/xlink" xmlns:sketch="http://www.bohemiancoding.com/sketch/ns">
    <!-- Generator: Sketch 3.1 (8751) - http://www.bohemiancoding.com/sketch -->
    <title>gs-web-browser2</title>
    <desc>Created with Sketch.</desc>
    <defs>
        <filter x="-50%" y="-50%" width="200%" height="200%" filterUnits="objectBoundingBox" id="filter-1">
            <feMorphology radius="1" in="SourceAlpha" operator="dilate" result="shadowSpreadOuter1"></feMorphology>
            <feOffset dx="0" dy="1" in="shadowSpreadOuter1" result="shadowOffsetOuter1"></feOffset>
            <feGaussianBlur stdDeviation="2" in="shadowOffsetOuter1" result="shadowBlurOuter1"></feGaussianBlur>
            <feColorMatrix values="0 0 0 0 0   0 0 0 0 0   0 0 0 0 0  0 0 0 0.21 0" in="shadowBlurOuter1" type="matrix" result="shadowMatrixOuter1"></feColorMatrix>
            <feMerge>
                <feMergeNode in="shadowMatrixOuter1"></feMergeNode>
                <feMergeNode in="SourceGraphic"></feMergeNode>
            </feMerge>
        </filter>
    </defs>
    <g id="Page-1" stroke="none" stroke-width="1" fill="none" fill-rule="evenodd" sketch:type="MSPage">
        <g id="gs-web-browser2" sketch:type="MSArtboardGroup">
            <circle id="Oval-1" fill="#B9B9B9" sketch:type="MSShapeGroup" cx="39" cy="69" r="18"></circle>
            <text id="3" sketch:type="MSTextLayer" font-family="Lato" font-size="18" font-weight="normal" sketch:alignment="middle" fill="#FFFFFF">
                <tspan x="33.28" y="75">3</tspan>
            </text>
            <rect id="Rectangle-25" stroke="#6F6F6F" stroke-width="2" fill="#6E6E6E" sketch:type="MSShapeGroup" x="85" y="51" width="581" height="359" rx="8"></rect>
            <rect id="Rectangle-27" fill="#EFEFEF" sketch:type="MSShapeGroup" x="87" y="88" width="577" height="320"></rect>
            <path d="M645.462155,69.000375 L649.696244,64.765934 C650.101252,64.362892 650.101252,63.7068236 649.696244,63.3037816 C649.293235,62.8987395 648.636222,62.8987395 648.233213,63.3037816 L643.999125,67.5382227 L639.765037,63.3037816 C639.361028,62.8987395 638.706015,62.8987395 638.303006,63.3037816 C637.898998,63.7068236 637.898998,64.362892 638.303006,64.765934 L642.537095,69.000375 L638.303006,73.2358162 C637.898998,73.6388582 637.898998,74.2949266 638.303006,74.6989686 C638.504011,74.8999896 638.769016,75 639.034022,75 C639.300027,75 639.563033,74.8999896 639.765037,74.6989686 L643.999125,70.4635275 L648.233213,74.6989686 C648.435217,74.8999896 648.701223,75 648.965228,75 C649.230234,75 649.494239,74.8999896 649.696244,74.6989686 C650.101252,74.2949266 650.101252,73.6388582 649.696244,73.2358162 L645.462155,69.000375" id="Close" fill="#999999" sketch:type="MSShapeGroup"></path>
            <g id="Rectangle-28-+-Group" sketch:type="MSLayerGroup" transform="translate(201.000000, 120.000000)">
                <g id="Group" transform="translate(12.000000, 8.000000)" sketch:type="MSShapeGroup">
                    <rect id="Rectangle-143" fill="#E0E0E0" x="0" y="0" width="103.747875" height="103.747875" rx="3"></rect>
                    <rect id="Rectangle-143" fill="#E0E0E0" x="0" y="111" width="103.747875" height="103.747875" rx="3"></rect>
                    <rect id="Rectangle-143" fill="#C6C6C6" x="110" y="0" width="103.747875" height="103.747875" rx="3"></rect>
                    <rect id="Rectangle-143" fill="#E0E0E0" x="221" y="222" width="103.747875" height="103.747875" rx="3"></rect>
                    <rect id="Rectangle-143" fill="#E0E0E0" x="331" y="222" width="103.747875" height="103.747875" rx="3"></rect>
                    <rect id="Rectangle-143" fill="#E0E0E0" x="110" y="111" width="214" height="103.747875" rx="3"></rect>
                    <rect id="Rectangle-143" fill="#E0E0E0" x="0" y="222" width="214" height="103.747875" rx="3"></rect>
                    <rect id="Rectangle-144" fill="#E0E0E0" x="220" y="0" width="103.747875" height="103.747875" rx="3"></rect>
                    <rect id="Rectangle-144" fill="#E0E0E0" x="331" y="0" width="103.747875" height="103.747875" rx="3"></rect>
                    <rect id="Rectangle-144" fill="#E0E0E0" x="331" y="111" width="103.747875" height="103.747875" rx="3"></rect>
                </g>
            </g>
            <path d="M112.668945,71.7548828 L98.4462891,92.921875 L203.586914,92.5517578 L188.308594,72.3662109 L112.668945,71.7548828 Z" id="Rectangle-154" fill="#EFEFEF" sketch:type="MSShapeGroup"></path>
            <path d="M624,62 L623,62 L623,61 L620,64 L617,61 L617,67 C617,67.552 617.448,68 618,68 L624,68 L621,65 L624,62 L624,62 Z M614,70 L608,70 L611,73 L608,76 L609,76 L609,77 L612,74 L615,77 L615,71 C615,70.448 614.552,70 614,70 L614,70 Z" id="Resize" fill="#999999" sketch:type="MSShapeGroup"></path>
            <path d="M580,68 L592,68 C592.552,68 593,68.447 593,69 C593,69.552 592.552,70 592,70 L580,70 C579.448,70 579,69.552 579,69 C579,68.447 579.448,68 580,68" id="Minimize" fill="#999999" sketch:type="MSShapeGroup"></path>
            <g id="Group" sketch:type="MSLayerGroup" transform="translate(99.000000, 216.000000)" fill="#D7D7D7">
                <g id="Oval-34-+-Rectangle-139" sketch:type="MSShapeGroup">
                    <circle id="Oval-34" cx="5.5" cy="5.5" r="5.5"></circle>
                    <rect id="Rectangle-139" x="17" y="2" width="69" height="8"></rect>
                </g>
                <g id="Oval-34-+-Rectangle-139" transform="translate(0.000000, 20.000000)" sketch:type="MSShapeGroup">
                    <circle id="Oval-34" cx="5.5" cy="5.5" r="5.5"></circle>
                    <rect id="Rectangle-139" x="17" y="2" width="69" height="8"></rect>
                </g>
                <g id="Oval-34-+-Rectangle-140" transform="translate(0.000000, 40.000000)" sketch:type="MSShapeGroup">
                    <circle id="Oval-34" cx="5.5" cy="5.5" r="5.5"></circle>
                    <rect id="Rectangle-139" x="17" y="2" width="69" height="8"></rect>
                </g>
                <g id="Oval-34-+-Rectangle-141" transform="translate(0.000000, 60.000000)" sketch:type="MSShapeGroup">
                    <circle id="Oval-34" cx="5.5" cy="5.5" r="5.5"></circle>
                    <rect id="Rectangle-139" x="17" y="2" width="69" height="8"></rect>
                </g>
            </g>
            <g id="Close-+-Close-+-layer12" sketch:type="MSLayerGroup" transform="translate(94.000000, 96.000000)" fill="#BEBEBE">
                <path d="M6.74152613,1.76593395 C7.14653457,1.36289197 7.14653457,0.706823627 6.74152613,0.303781644 C6.33851774,-0.101260548 5.68150405,-0.101260548 5.27849565,0.303781644 L0.292277231,5.29041563 C-0.0997898497,5.68251538 -0.0950544454,6.32308377 0.292277231,6.71058374 L5.27849565,11.6989686 C5.48049986,11.8999896 5.7465054,12 6.0105109,12 C6.27551642,12 6.53952192,11.8999896 6.74152613,11.6989686 C7.14653457,11.2949266 7.14653457,10.6388582 6.74152613,10.2358162 L2.50743792,6.00037504 L6.74152613,1.76593395 Z" id="Close" sketch:type="MSShapeGroup"></path>
                <path d="M25.7415261,1.76593395 C26.1465346,1.36289197 26.1465346,0.706823627 25.7415261,0.303781644 C25.3385177,-0.101260548 24.681504,-0.101260548 24.2784957,0.303781644 L19.2922772,5.29041563 C18.9002102,5.68251538 18.9049456,6.32308377 19.2922772,6.71058374 L24.2784957,11.6989686 C24.4804999,11.8999896 24.7465054,12 25.0105109,12 C25.2755164,12 25.5395219,11.8999896 25.7415261,11.6989686 C26.1465346,11.2949266 26.1465346,10.6388582 25.7415261,10.2358162 L21.5074379,6.00037504 L25.7415261,1.76593395 Z" id="Close" sketch:type="MSShapeGroup" transform="translate(22.522641, 6.000000) rotate(-180.000000) translate(-22.522641, -6.000000) "></path>
                <g id="layer12" transform="translate(34.999800, 0.000000)" sketch:type="MSShapeGroup">
                    <path d="M11.90645,-0.03125 C11.8641561,-0.0235473914 11.8224028,-0.0131257729 11.78145,-4.99999999e-05 C11.3158215,0.104228262 10.9887139,0.522925968 11.0002,0.99995 L11.0002,2.68745 C10.61795,2.10949 10.15093,1.60522 9.59395,1.18745 C8.43832,0.32068 7.06196,-0.06482 5.71895,-4.99999999e-05 C5.52709,0.00895 5.34672,0.03525 5.15645,0.06245 C3.63427,0.27986 2.1783,1.08549 1.1877,2.4062 C-0.79349,5.04764 -0.23497,8.83125 2.40645,10.81245 C5.04792,12.79367 8.83149,12.23512 10.8127,9.5937 C10.9363871,9.42059565 11.0020298,9.21274461 11.0002,9 C11.0042495,8.94799538 11.0042495,8.89575462 11.0002,8.84375 L11.0002,8 L10.1877,8 L10.094,8 C10.0627836,7.99854513 10.0315164,7.99854513 10.0003,8 C9.68027702,7.99851994 9.37862973,8.14934358 9.1878,8.40625 C7.85515,10.18299 5.37078,10.52012 3.59405,9.1875 C1.81731,7.85486 1.48015,5.37051 2.8128,3.59375 C4.14545,1.81701 6.6298,1.47986 8.40655,2.8125 C8.83601,3.13462 9.17609,3.54545 9.4378,4 L8.0003,4 C7.44803812,4.00005522 7.00035522,4.44773812 7.0003,5 C6.99230155,5.07269732 6.99230155,5.14605268 7.0003,5.21875 L7.0003,6 L7.84405,6 L8.0003,6 L12.0003,6 L13.0003,6 L13.0003,5 L13.0003,1 C13.0061717,0.937637908 13.0061717,0.874862092 13.0003,0.8125 L13.0003,-1.73180914e-13 L12.1878,-1.73180914e-13 C12.0960026,-0.0236776108 12.0013049,-0.0341827423 11.90655,-0.0312 L11.90645,-0.03125 Z" id="path4597"></path>
                </g>
            </g>
            <rect id="Rectangle-153" fill="#D8D8D8" sketch:type="MSShapeGroup" x="149" y="92" width="510" height="20"></rect>
            <g id="layer11" sketch:type="MSLayerGroup" transform="translate(151.999602, 95.000000)" fill="#B4B4B4">
                <path d="M5.507806,-0.00446 C2.47895,-0.00446 -0.00292,2.47459 -0.00292,5.50001 C-0.00292,8.52542 2.47895,11.00447 5.507806,11.00447 C8.536662,11.00447 11.018532,8.52542 11.018532,5.50001 C11.018532,2.47459 8.536662,-0.00446 5.507806,-0.00446 L5.507806,-0.00446 Z M5.507806,2.00447 C7.455163,2.00447 9.007318,3.55486 9.007318,5.50001 C9.007318,7.44515 7.455163,8.99554 5.507806,8.99554 C3.560449,8.99554 2.008294,7.44515 2.008294,5.50001 C2.008294,3.55486 3.560449,2.00447 5.507806,2.00447 L5.507806,2.00447 Z" id="path5254" sketch:type="MSShapeGroup"></path>
                <path d="M8.8125,8 C8.43939059,8.06769005 8.13665583,8.34057348 8.03073409,8.70467946 C7.92481235,9.06878544 8.03392472,9.46147895 8.3125,9.71875 L12.3125,13.71875 C12.5692618,13.9700736 12.9406163,14.0652922 13.2866314,13.9685259 C13.6326465,13.8717595 13.9007333,13.5977153 13.9898724,13.2496573 C14.0790116,12.9015993 13.9756554,12.5324268 13.71875,12.28125 L9.71875,8.28125 C9.48320116,8.04103801 9.14266028,7.93535291 8.8125,8 L8.8125,8 Z" id="path5256" sketch:type="MSShapeGroup"></path>
            </g>
            <path d="M87,87.248 L100.105,87.248 C101.755,87.248 103.719,86.046 104.47,84.577 L109.535,74.671 C110.286,73.202 112.25,72 113.9,72 L186.727,72 C188.377,72 190.391,73.176 191.201,74.613 L196.855,84.635 C197.665,86.072 199.679,87.248 201.329,87.248 L664,87.2480469" id="Imported-Layers" stroke="#6F6F6F" stroke-width="2" sketch:type="MSShapeGroup"></path>
            <path d="M88,116 L662.573039,116" id="Line" stroke="#BEBEBE" stroke-width="2" stroke-linecap="square" sketch:type="MSShapeGroup"></path>
            <path d="M393,215.698223 L380,200 L380,220.156712 L384.262629,216.018529 L387.101525,223.977813 C387.325422,224.606602 387.915698,225.001073 388.545612,224.999998 C388.717017,224.999998 388.892707,224.969902 389.06197,224.90971 C389.68974,224.683991 390.080758,224.091747 390.080758,223.459734 C390.080758,223.287758 390.051834,223.112557 389.99077,222.941655 L387.166873,215.02644 L393,215.698223 Z" id="Imported-Layers" stroke="#FFFFFF" stroke-width="2" stroke-linejoin="round" fill="#000000" filter="url(#filter-1)" sketch:type="MSShapeGroup"></path>
            <circle id="Oval-1" fill="#B9B9B9" sketch:type="MSShapeGroup" cx="39" cy="840" r="18"></circle>
            <text id="5" sketch:type="MSTextLayer" font-family="Lato" font-size="18" font-weight="normal" sketch:alignment="middle" fill="#FFFFFF">
                <tspan x="33.28" y="846">5</tspan>
            </text>
            <rect id="Rectangle-25" stroke="#6F6F6F" stroke-width="2" fill="#6E6E6E" sketch:type="MSShapeGroup" x="85" y="822" width="581" height="359" rx="8"></rect>
            <rect id="Rectangle-27" fill="#EFEFEF" sketch:type="MSShapeGroup" x="87" y="859" width="577" height="320"></rect>
            <path d="M645.462155,840.000375 L649.696244,835.765934 C650.101252,835.362892 650.101252,834.706824 649.696244,834.303782 C649.293235,833.898739 648.636222,833.898739 648.233213,834.303782 L643.999125,838.538223 L639.765037,834.303782 C639.361028,833.898739 638.706015,833.898739 638.303006,834.303782 C637.898998,834.706824 637.898998,835.362892 638.303006,835.765934 L642.537095,840.000375 L638.303006,844.235816 C637.898998,844.638858 637.898998,845.294927 638.303006,845.698969 C638.504011,845.89999 638.769016,846 639.034022,846 C639.300027,846 639.563033,845.89999 639.765037,845.698969 L643.999125,841.463527 L648.233213,845.698969 C648.435217,845.89999 648.701223,846 648.965228,846 C649.230234,846 649.494239,845.89999 649.696244,845.698969 C650.101252,845.294927 650.101252,844.638858 649.696244,844.235816 L645.462155,840.000375" id="Close" fill="#999999" sketch:type="MSShapeGroup"></path>
            <path d="M112.668945,842.754883 L98.4462891,863.921875 L203.586914,863.551758 L188.308594,843.366211 L112.668945,842.754883 Z" id="Rectangle-154" fill="#EFEFEF" sketch:type="MSShapeGroup"></path>
            <path d="M624,833 L623,833 L623,832 L620,835 L617,832 L617,838 C617,838.552 617.448,839 618,839 L624,839 L621,836 L624,833 L624,833 Z M614,841 L608,841 L611,844 L608,847 L609,847 L609,848 L612,845 L615,848 L615,842 C615,841.448 614.552,841 614,841 L614,841 Z" id="Resize" fill="#999999" sketch:type="MSShapeGroup"></path>
            <path d="M580,839 L592,839 C592.552,839 593,839.447 593,840 C593,840.552 592.552,841 592,841 L580,841 C579.448,841 579,840.552 579,840 C579,839.447 579.448,839 580,839" id="Minimize" fill="#999999" sketch:type="MSShapeGroup"></path>
            <g id="Close-+-Close-+-layer12" sketch:type="MSLayerGroup" transform="translate(94.000000, 867.000000)" fill="#BEBEBE">
                <path d="M6.74152613,1.76593395 C7.14653457,1.36289197 7.14653457,0.706823627 6.74152613,0.303781644 C6.33851774,-0.101260548 5.68150405,-0.101260548 5.27849565,0.303781644 L0.292277231,5.29041563 C-0.0997898497,5.68251538 -0.0950544454,6.32308377 0.292277231,6.71058374 L5.27849565,11.6989686 C5.48049986,11.8999896 5.7465054,12 6.0105109,12 C6.27551642,12 6.53952192,11.8999896 6.74152613,11.6989686 C7.14653457,11.2949266 7.14653457,10.6388582 6.74152613,10.2358162 L2.50743792,6.00037504 L6.74152613,1.76593395 Z" id="Close" sketch:type="MSShapeGroup"></path>
                <path d="M25.7415261,1.76593395 C26.1465346,1.36289197 26.1465346,0.706823627 25.7415261,0.303781644 C25.3385177,-0.101260548 24.681504,-0.101260548 24.2784957,0.303781644 L19.2922772,5.29041563 C18.9002102,5.68251538 18.9049456,6.32308377 19.2922772,6.71058374 L24.2784957,11.6989686 C24.4804999,11.8999896 24.7465054,12 25.0105109,12 C25.2755164,12 25.5395219,11.8999896 25.7415261,11.6989686 C26.1465346,11.2949266 26.1465346,10.6388582 25.7415261,10.2358162 L21.5074379,6.00037504 L25.7415261,1.76593395 Z" id="Close" sketch:type="MSShapeGroup" transform="translate(22.522641, 6.000000) rotate(-180.000000) translate(-22.522641, -6.000000) "></path>
                <g id="layer12" transform="translate(34.999800, 0.000000)" sketch:type="MSShapeGroup">
                    <path d="M11.90645,-0.03125 C11.8641561,-0.0235473914 11.8224028,-0.0131257729 11.78145,-4.99999999e-05 C11.3158215,0.104228262 10.9887139,0.522925968 11.0002,0.99995 L11.0002,2.68745 C10.61795,2.10949 10.15093,1.60522 9.59395,1.18745 C8.43832,0.32068 7.06196,-0.06482 5.71895,-4.99999999e-05 C5.52709,0.00895 5.34672,0.03525 5.15645,0.06245 C3.63427,0.27986 2.1783,1.08549 1.1877,2.4062 C-0.79349,5.04764 -0.23497,8.83125 2.40645,10.81245 C5.04792,12.79367 8.83149,12.23512 10.8127,9.5937 C10.9363871,9.42059565 11.0020298,9.21274461 11.0002,9 C11.0042495,8.94799538 11.0042495,8.89575462 11.0002,8.84375 L11.0002,8 L10.1877,8 L10.094,8 C10.0627836,7.99854513 10.0315164,7.99854513 10.0003,8 C9.68027702,7.99851994 9.37862973,8.14934358 9.1878,8.40625 C7.85515,10.18299 5.37078,10.52012 3.59405,9.1875 C1.81731,7.85486 1.48015,5.37051 2.8128,3.59375 C4.14545,1.81701 6.6298,1.47986 8.40655,2.8125 C8.83601,3.13462 9.17609,3.54545 9.4378,4 L8.0003,4 C7.44803812,4.00005522 7.00035522,4.44773812 7.0003,5 C6.99230155,5.07269732 6.99230155,5.14605268 7.0003,5.21875 L7.0003,6 L7.84405,6 L8.0003,6 L12.0003,6 L13.0003,6 L13.0003,5 L13.0003,1 C13.0061717,0.937637908 13.0061717,0.874862092 13.0003,0.8125 L13.0003,-1.73180914e-13 L12.1878,-1.73180914e-13 C12.0960026,-0.0236776108 12.0013049,-0.0341827423 11.90655,-0.0312 L11.90645,-0.03125 Z" id="path4597"></path>
                </g>
            </g>
            <g id="layer11" sketch:type="MSLayerGroup" transform="translate(151.999602, 866.000000)" fill="#B4B4B4">
                <path d="M5.507806,-0.00446 C2.47895,-0.00446 -0.00292,2.47459 -0.00292,5.50001 C-0.00292,8.52542 2.47895,11.00447 5.507806,11.00447 C8.536662,11.00447 11.018532,8.52542 11.018532,5.50001 C11.018532,2.47459 8.536662,-0.00446 5.507806,-0.00446 L5.507806,-0.00446 Z M5.507806,2.00447 C7.455163,2.00447 9.007318,3.55486 9.007318,5.50001 C9.007318,7.44515 7.455163,8.99554 5.507806,8.99554 C3.560449,8.99554 2.008294,7.44515 2.008294,5.50001 C2.008294,3.55486 3.560449,2.00447 5.507806,2.00447 L5.507806,2.00447 Z" id="path5254" sketch:type="MSShapeGroup"></path>
                <path d="M8.8125,8 C8.43939059,8.06769005 8.13665583,8.34057348 8.03073409,8.70467946 C7.92481235,9.06878544 8.03392472,9.46147895 8.3125,9.71875 L12.3125,13.71875 C12.5692618,13.9700736 12.9406163,14.0652922 13.2866314,13.9685259 C13.6326465,13.8717595 13.9007333,13.5977153 13.9898724,13.2496573 C14.0790116,12.9015993 13.9756554,12.5324268 13.71875,12.28125 L9.71875,8.28125 C9.48320116,8.04103801 9.14266028,7.93535291 8.8125,8 L8.8125,8 Z" id="path5256" sketch:type="MSShapeGroup"></path>
            </g>
            <path d="M87,858.248 L100.105,858.248 C101.755,858.248 103.719,857.046 104.47,855.577 L109.535,845.671 C110.286,844.202 112.25,843 113.9,843 L186.727,843 C188.377,843 190.391,844.176 191.201,845.613 L196.855,855.635 C197.665,857.072 199.679,858.248 201.329,858.248 L664,858.248047" id="Imported-Layers" stroke="#6F6F6F" stroke-width="2" sketch:type="MSShapeGroup"></path>
            <path d="M88,887 L662.573039,887" id="Line" stroke="#BEBEBE" stroke-width="2" stroke-linecap="square" sketch:type="MSShapeGroup"></path>
            <g id="Oval-1-+-4" sketch:type="MSLayerGroup" transform="translate(169.000000, 488.000000)">
                <circle id="Oval-1" fill="#B9B9B9" sketch:type="MSShapeGroup" cx="18" cy="18" r="18"></circle>
                <text id="4" sketch:type="MSTextLayer" font-family="Lato" font-size="18" font-weight="normal" sketch:alignment="middle" fill="#FFFFFF">
                    <tspan x="12.28" y="24">4</tspan>
                </text>
            </g>
            <rect id="Rectangle-25" stroke="#6F6F6F" stroke-width="2" fill="#6E6E6E" sketch:type="MSShapeGroup" x="233" y="294" width="581" height="359" rx="8"></rect>
            <rect id="Rectangle-27" fill="#EFEFEF" sketch:type="MSShapeGroup" x="235" y="331" width="577" height="320"></rect>
            <path d="M793.462155,312.000375 L797.696244,307.765934 C798.101252,307.362892 798.101252,306.706824 797.696244,306.303782 C797.293235,305.898739 796.636222,305.898739 796.233213,306.303782 L791.999125,310.538223 L787.765037,306.303782 C787.361028,305.898739 786.706015,305.898739 786.303006,306.303782 C785.898998,306.706824 785.898998,307.362892 786.303006,307.765934 L790.537095,312.000375 L786.303006,316.235816 C785.898998,316.638858 785.898998,317.294927 786.303006,317.698969 C786.504011,317.89999 786.769016,318 787.034022,318 C787.300027,318 787.563033,317.89999 787.765037,317.698969 L791.999125,313.463527 L796.233213,317.698969 C796.435217,317.89999 796.701223,318 796.965228,318 C797.230234,318 797.494239,317.89999 797.696244,317.698969 C798.101252,317.294927 798.101252,316.638858 797.696244,316.235816 L793.462155,312.000375" id="Close" fill="#999999" sketch:type="MSShapeGroup"></path>
            <path d="M260.668945,314.754883 L246.446289,335.921875 L351.586914,335.551758 L336.308594,315.366211 L260.668945,314.754883 Z" id="Rectangle-154" fill="#EFEFEF" sketch:type="MSShapeGroup"></path>
            <path d="M772,305 L771,305 L771,304 L768,307 L765,304 L765,310 C765,310.552 765.448,311 766,311 L772,311 L769,308 L772,305 L772,305 Z M762,313 L756,313 L759,316 L756,319 L757,319 L757,320 L760,317 L763,320 L763,314 C763,313.448 762.552,313 762,313 L762,313 Z" id="Resize" fill="#999999" sketch:type="MSShapeGroup"></path>
            <path d="M728,311 L740,311 C740.552,311 741,311.447 741,312 C741,312.552 740.552,313 740,313 L728,313 C727.448,313 727,312.552 727,312 C727,311.447 727.448,311 728,311" id="Minimize" fill="#999999" sketch:type="MSShapeGroup"></path>
            <g id="Close-+-Close-+-layer12" sketch:type="MSLayerGroup" transform="translate(242.000000, 339.000000)" fill="#BEBEBE">
                <path d="M6.74152613,1.76593395 C7.14653457,1.36289197 7.14653457,0.706823627 6.74152613,0.303781644 C6.33851774,-0.101260548 5.68150405,-0.101260548 5.27849565,0.303781644 L0.292277231,5.29041563 C-0.0997898497,5.68251538 -0.0950544454,6.32308377 0.292277231,6.71058374 L5.27849565,11.6989686 C5.48049986,11.8999896 5.7465054,12 6.0105109,12 C6.27551642,12 6.53952192,11.8999896 6.74152613,11.6989686 C7.14653457,11.2949266 7.14653457,10.6388582 6.74152613,10.2358162 L2.50743792,6.00037504 L6.74152613,1.76593395 Z" id="Close" sketch:type="MSShapeGroup"></path>
                <path d="M25.7415261,1.76593395 C26.1465346,1.36289197 26.1465346,0.706823627 25.7415261,0.303781644 C25.3385177,-0.101260548 24.681504,-0.101260548 24.2784957,0.303781644 L19.2922772,5.29041563 C18.9002102,5.68251538 18.9049456,6.32308377 19.2922772,6.71058374 L24.2784957,11.6989686 C24.4804999,11.8999896 24.7465054,12 25.0105109,12 C25.2755164,12 25.5395219,11.8999896 25.7415261,11.6989686 C26.1465346,11.2949266 26.1465346,10.6388582 25.7415261,10.2358162 L21.5074379,6.00037504 L25.7415261,1.76593395 Z" id="Close" sketch:type="MSShapeGroup" transform="translate(22.522641, 6.000000) rotate(-180.000000) translate(-22.522641, -6.000000) "></path>
                <g id="layer12" transform="translate(34.999800, 0.000000)" sketch:type="MSShapeGroup">
                    <path d="M11.90645,-0.03125 C11.8641561,-0.0235473914 11.8224028,-0.0131257729 11.78145,-4.99999999e-05 C11.3158215,0.104228262 10.9887139,0.522925968 11.0002,0.99995 L11.0002,2.68745 C10.61795,2.10949 10.15093,1.60522 9.59395,1.18745 C8.43832,0.32068 7.06196,-0.06482 5.71895,-4.99999999e-05 C5.52709,0.00895 5.34672,0.03525 5.15645,0.06245 C3.63427,0.27986 2.1783,1.08549 1.1877,2.4062 C-0.79349,5.04764 -0.23497,8.83125 2.40645,10.81245 C5.04792,12.79367 8.83149,12.23512 10.8127,9.5937 C10.9363871,9.42059565 11.0020298,9.21274461 11.0002,9 C11.0042495,8.94799538 11.0042495,8.89575462 11.0002,8.84375 L11.0002,8 L10.1877,8 L10.094,8 C10.0627836,7.99854513 10.0315164,7.99854513 10.0003,8 C9.68027702,7.99851994 9.37862973,8.14934358 9.1878,8.40625 C7.85515,10.18299 5.37078,10.52012 3.59405,9.1875 C1.81731,7.85486 1.48015,5.37051 2.8128,3.59375 C4.14545,1.81701 6.6298,1.47986 8.40655,2.8125 C8.83601,3.13462 9.17609,3.54545 9.4378,4 L8.0003,4 C7.44803812,4.00005522 7.00035522,4.44773812 7.0003,5 C6.99230155,5.07269732 6.99230155,5.14605268 7.0003,5.21875 L7.0003,6 L7.84405,6 L8.0003,6 L12.0003,6 L13.0003,6 L13.0003,5 L13.0003,1 C13.0061717,0.937637908 13.0061717,0.874862092 13.0003,0.8125 L13.0003,-1.73180914e-13 L12.1878,-1.73180914e-13 C12.0960026,-0.0236776108 12.0013049,-0.0341827423 11.90655,-0.0312 L11.90645,-0.03125 Z" id="path4597"></path>
                </g>
            </g>
            <rect id="Rectangle-153" stroke="#979797" stroke-width="2" fill="#FFFFFF" sketch:type="MSShapeGroup" x="297" y="335" width="510" height="20"></rect>
            <path d="M235,330.248 L248.105,330.248 C249.755,330.248 251.719,329.046 252.47,327.577 L257.535,317.671 C258.286,316.202 260.25,315 261.9,315 L334.727,315 C336.377,315 338.391,316.176 339.201,317.613 L344.855,327.635 C345.665,329.072 347.679,330.248 349.329,330.248 L812,330.248047" id="Imported-Layers" stroke="#6F6F6F" stroke-width="2" sketch:type="MSShapeGroup"></path>
            <path d="M236,359 L810.573039,359" id="Line" stroke="#BEBEBE" stroke-width="2" stroke-linecap="square" sketch:type="MSShapeGroup"></path>
            <g id="Imported-Layers" sketch:type="MSLayerGroup" transform="translate(398.000000, 670.000000)">
                <path d="M3.235,32.746 C8.765,34.165 21.749,34.165 27.529,32.746 C28.336,32.548 28.962,33.418 29.029,34.247 L31.026,47.305 L-0.263,47.305 C0.403,42.953 1.069,38.6 1.735,34.247 C1.86,33.425 2.43,32.54 3.235,32.746 L3.235,32.746 Z" id="Fill-1" fill="#FFFFFF" sketch:type="MSShapeGroup"></path>
                <path d="M3.235,32.746 C8.765,34.165 21.749,34.165 27.529,32.746 C28.336,32.548 28.962,33.418 29.029,34.247 L31.026,47.305 L-0.263,47.305 C0.403,42.953 1.069,38.6 1.735,34.247 C1.86,33.425 2.43,32.54 3.235,32.746 L3.235,32.746 Z" id="Stroke-2" stroke="#000000" stroke-width="0.981" sketch:type="MSShapeGroup"></path>
                <path d="M37.193,32.746 C42.723,34.165 55.707,34.165 61.487,32.746 C62.294,32.548 62.919,33.418 62.987,34.247 L64.984,47.305 L33.695,47.305 C34.361,42.953 35.027,38.6 35.693,34.247 C35.818,33.425 36.388,32.54 37.193,32.746 L37.193,32.746 Z" id="Fill-3" fill="#FFFFFF" sketch:type="MSShapeGroup"></path>
                <path d="M37.193,32.746 C42.723,34.165 55.707,34.165 61.487,32.746 C62.294,32.548 62.919,33.418 62.987,34.247 L64.984,47.305 L33.695,47.305 C34.361,42.953 35.027,38.6 35.693,34.247 C35.818,33.425 36.388,32.54 37.193,32.746 L37.193,32.746 Z" id="Stroke-4" stroke="#000000" stroke-width="0.981" sketch:type="MSShapeGroup"></path>
                <path d="M71.151,32.746 C76.681,34.165 89.664,34.165 95.444,32.746 C96.251,32.548 96.877,33.418 96.944,34.247 L98.942,47.305 L67.653,47.305 C68.319,42.953 68.985,38.6 69.65,34.247 C69.776,33.425 70.346,32.54 71.151,32.746 L71.151,32.746 Z" id="Fill-5" fill="#FFFFFF" sketch:type="MSShapeGroup"></path>
                <path d="M71.151,32.746 C76.681,34.165 89.664,34.165 95.444,32.746 C96.251,32.548 96.877,33.418 96.944,34.247 L98.942,47.305 L67.653,47.305 C68.319,42.953 68.985,38.6 69.65,34.247 C69.776,33.425 70.346,32.54 71.151,32.746 L71.151,32.746 Z" id="Stroke-6" stroke="#000000" stroke-width="0.981" sketch:type="MSShapeGroup"></path>
                <path d="M104.695,32.746 C110.225,34.165 123.209,34.165 128.988,32.746 C129.796,32.548 130.421,33.418 130.489,34.247 L132.486,47.305 L101.197,47.305 C101.863,42.953 102.529,38.6 103.194,34.247 C103.32,33.425 103.889,32.54 104.695,32.746 L104.695,32.746 Z" id="Fill-7" fill="#FFFFFF" sketch:type="MSShapeGroup"></path>
                <path d="M104.695,32.746 C110.225,34.165 123.209,34.165 128.988,32.746 C129.796,32.548 130.421,33.418 130.489,34.247 L132.486,47.305 L101.197,47.305 C101.863,42.953 102.529,38.6 103.194,34.247 C103.32,33.425 103.889,32.54 104.695,32.746 L104.695,32.746 Z" id="Stroke-8" stroke="#000000" stroke-width="0.981" sketch:type="MSShapeGroup"></path>
                <path d="M138.652,32.746 C144.182,34.165 157.166,34.165 162.946,32.746 C163.753,32.548 164.379,33.418 164.446,34.247 L166.444,47.305 L135.155,47.305 C135.82,42.953 136.486,38.6 137.152,34.247 C137.278,33.425 137.847,32.54 138.652,32.746 L138.652,32.746 Z" id="Fill-9" fill="#FFFFFF" sketch:type="MSShapeGroup"></path>
                <path d="M138.652,32.746 C144.182,34.165 157.166,34.165 162.946,32.746 C163.753,32.548 164.379,33.418 164.446,34.247 L166.444,47.305 L135.155,47.305 C135.82,42.953 136.486,38.6 137.152,34.247 C137.278,33.425 137.847,32.54 138.652,32.746 L138.652,32.746 Z" id="Stroke-10" stroke="#000000" stroke-width="0.981" sketch:type="MSShapeGroup"></path>
                <path d="M172.61,32.746 C178.14,34.165 191.124,34.165 196.904,32.746 C197.711,32.548 198.337,33.418 198.404,34.247 L200.402,47.305 L169.112,47.305 C169.778,42.953 170.444,38.6 171.11,34.247 C171.236,33.425 171.805,32.54 172.61,32.746 L172.61,32.746 Z" id="Fill-11" fill="#FFFFFF" sketch:type="MSShapeGroup"></path>
                <path d="M172.61,32.746 C178.14,34.165 191.124,34.165 196.904,32.746 C197.711,32.548 198.337,33.418 198.404,34.247 L200.402,47.305 L169.112,47.305 C169.778,42.953 170.444,38.6 171.11,34.247 C171.236,33.425 171.805,32.54 172.61,32.746 L172.61,32.746 Z" id="Stroke-12" stroke="#000000" stroke-width="0.981" sketch:type="MSShapeGroup"></path>
                <path d="M206.154,32.746 C211.684,34.165 224.668,34.165 230.448,32.746 C231.255,32.548 231.881,33.418 231.948,34.247 L233.946,47.305 L202.656,47.305 C203.322,42.953 203.988,38.6 204.654,34.247 C204.78,33.425 205.349,32.54 206.154,32.746 L206.154,32.746 Z" id="Fill-13" fill="#FFFFFF" sketch:type="MSShapeGroup"></path>
                <path d="M206.154,32.746 C211.684,34.165 224.668,34.165 230.448,32.746 C231.255,32.548 231.881,33.418 231.948,34.247 L233.946,47.305 L202.656,47.305 C203.322,42.953 203.988,38.6 204.654,34.247 C204.78,33.425 205.349,32.54 206.154,32.746 L206.154,32.746 Z" id="Stroke-14" stroke="#000000" stroke-width="0.981" sketch:type="MSShapeGroup"></path>
                <path d="M9.762,42.537 C15.292,43.955 28.276,43.955 34.056,42.537 C34.863,42.339 35.489,43.209 35.556,44.037 L37.553,57.096 L6.264,57.096 L8.262,44.037 C8.387,43.215 8.957,42.33 9.762,42.537 L9.762,42.537 Z" id="Fill-15" fill="#FFFFFF" sketch:type="MSShapeGroup"></path>
                <path d="M9.762,42.537 C15.292,43.955 28.276,43.955 34.056,42.537 C34.863,42.339 35.489,43.209 35.556,44.037 L37.553,57.096 L6.264,57.096 L8.262,44.037 C8.387,43.215 8.957,42.33 9.762,42.537 L9.762,42.537 Z" id="Stroke-16" stroke="#000000" stroke-width="0.981" sketch:type="MSShapeGroup"></path>
                <path d="M43.72,42.537 C49.25,43.955 62.234,43.955 68.013,42.537 C68.82,42.339 69.446,43.209 69.514,44.037 L71.511,57.096 L40.222,57.096 C40.888,52.743 41.554,48.39 42.219,44.037 C42.345,43.215 42.915,42.33 43.72,42.537 L43.72,42.537 Z" id="Fill-17" fill="#FFFFFF" sketch:type="MSShapeGroup"></path>
                <path d="M43.72,42.537 C49.25,43.955 62.234,43.955 68.013,42.537 C68.82,42.339 69.446,43.209 69.514,44.037 L71.511,57.096 L40.222,57.096 C40.888,52.743 41.554,48.39 42.219,44.037 C42.345,43.215 42.915,42.33 43.72,42.537 L43.72,42.537 Z" id="Stroke-18" stroke="#000000" stroke-width="0.981" sketch:type="MSShapeGroup"></path>
                <path d="M77.677,42.537 C83.207,43.955 96.191,43.955 101.971,42.537 C102.778,42.339 103.404,43.209 103.471,44.037 L105.469,57.096 L74.18,57.096 C74.845,52.743 75.511,48.39 76.177,44.037 C76.303,43.215 76.872,42.33 77.677,42.537 L77.677,42.537 Z" id="Fill-19" fill="#FFFFFF" sketch:type="MSShapeGroup"></path>
                <path d="M77.677,42.537 C83.207,43.955 96.191,43.955 101.971,42.537 C102.778,42.339 103.404,43.209 103.471,44.037 L105.469,57.096 L74.18,57.096 C74.845,52.743 75.511,48.39 76.177,44.037 C76.303,43.215 76.872,42.33 77.677,42.537 L77.677,42.537 Z" id="Stroke-20" stroke="#000000" stroke-width="0.981" sketch:type="MSShapeGroup"></path>
                <path d="M111.222,42.537 C116.752,43.955 129.735,43.955 135.515,42.537 C136.322,42.339 136.948,43.209 137.015,44.037 L139.013,57.096 L107.724,57.096 C108.389,52.743 109.055,48.39 109.721,44.037 C109.847,43.215 110.416,42.33 111.221,42.537 L111.222,42.537 L111.222,42.537 Z" id="Fill-21" fill="#FFFFFF" sketch:type="MSShapeGroup"></path>
                <path d="M111.222,42.537 C116.752,43.955 129.735,43.955 135.515,42.537 C136.322,42.339 136.948,43.209 137.015,44.037 L139.013,57.096 L107.724,57.096 C108.389,52.743 109.055,48.39 109.721,44.037 C109.847,43.215 110.416,42.33 111.221,42.537 L111.222,42.537 L111.222,42.537 Z" id="Stroke-22" stroke="#000000" stroke-width="0.981" sketch:type="MSShapeGroup"></path>
                <path d="M145.179,42.537 C150.709,43.955 163.693,43.955 169.473,42.537 C170.28,42.339 170.906,43.209 170.973,44.037 L172.971,57.096 L141.682,57.096 C142.347,52.743 143.013,48.39 143.679,44.037 C143.805,43.215 144.374,42.33 145.179,42.537 L145.179,42.537 Z" id="Fill-23" fill="#FFFFFF" sketch:type="MSShapeGroup"></path>
                <path d="M145.179,42.537 C150.709,43.955 163.693,43.955 169.473,42.537 C170.28,42.339 170.906,43.209 170.973,44.037 L172.971,57.096 L141.682,57.096 C142.347,52.743 143.013,48.39 143.679,44.037 C143.805,43.215 144.374,42.33 145.179,42.537 L145.179,42.537 Z" id="Stroke-24" stroke="#000000" stroke-width="0.981" sketch:type="MSShapeGroup"></path>
                <path d="M179.137,42.537 C184.667,43.955 197.651,43.955 203.431,42.537 C204.238,42.339 204.864,43.209 204.931,44.037 L206.929,57.096 L175.639,57.096 L177.637,44.037 C177.762,43.215 178.332,42.33 179.137,42.537 L179.137,42.537 Z" id="Fill-25" fill="#FFFFFF" sketch:type="MSShapeGroup"></path>
                <path d="M179.137,42.537 C184.667,43.955 197.651,43.955 203.431,42.537 C204.238,42.339 204.864,43.209 204.931,44.037 L206.929,57.096 L175.639,57.096 L177.637,44.037 C177.762,43.215 178.332,42.33 179.137,42.537 L179.137,42.537 Z" id="Stroke-26" stroke="#000000" stroke-width="0.981" sketch:type="MSShapeGroup"></path>
                <path d="M212.681,42.537 C218.211,43.955 231.195,43.955 236.975,42.537 C237.782,42.339 238.408,43.209 238.475,44.037 L240.473,57.096 L209.183,57.096 C209.849,52.743 210.515,48.39 211.181,44.037 C211.306,43.215 211.876,42.33 212.681,42.537 L212.681,42.537 Z" id="Fill-27" fill="#FFFFFF" sketch:type="MSShapeGroup"></path>
                <path d="M212.681,42.537 C218.211,43.955 231.195,43.955 236.975,42.537 C237.782,42.339 238.408,43.209 238.475,44.037 L240.473,57.096 L209.183,57.096 C209.849,52.743 210.515,48.39 211.181,44.037 C211.306,43.215 211.876,42.33 212.681,42.537 L212.681,42.537 Z" id="Stroke-28" stroke="#000000" stroke-width="0.981" sketch:type="MSShapeGroup"></path>
                <path d="M19.552,52.327 C25.082,53.745 38.066,53.745 43.846,52.327 C44.653,52.129 45.279,52.999 45.346,53.827 L47.344,66.886 L16.054,66.886 C16.72,62.533 17.386,58.18 18.052,53.827 C18.177,53.006 18.747,52.12 19.552,52.327 L19.552,52.327 Z" id="Fill-29" fill="#FFFFFF" sketch:type="MSShapeGroup"></path>
                <path d="M19.552,52.327 C25.082,53.745 38.066,53.745 43.846,52.327 C44.653,52.129 45.279,52.999 45.346,53.827 L47.344,66.886 L16.054,66.886 C16.72,62.533 17.386,58.18 18.052,53.827 C18.177,53.006 18.747,52.12 19.552,52.327 L19.552,52.327 Z" id="Stroke-30" stroke="#000000" stroke-width="0.981" sketch:type="MSShapeGroup"></path>
                <path d="M53.51,52.327 C59.04,53.745 72.024,53.745 77.803,52.327 C78.611,52.129 79.237,52.999 79.304,53.827 L81.301,66.886 L50.012,66.886 C50.678,62.533 51.344,58.18 52.01,53.827 C52.135,53.006 52.705,52.12 53.51,52.327 L53.51,52.327 Z" id="Fill-31" fill="#FFFFFF" sketch:type="MSShapeGroup"></path>
                <path d="M53.51,52.327 C59.04,53.745 72.024,53.745 77.803,52.327 C78.611,52.129 79.237,52.999 79.304,53.827 L81.301,66.886 L50.012,66.886 C50.678,62.533 51.344,58.18 52.01,53.827 C52.135,53.006 52.705,52.12 53.51,52.327 L53.51,52.327 Z" id="Stroke-32" stroke="#000000" stroke-width="0.981" sketch:type="MSShapeGroup"></path>
                <path d="M87.468,52.327 C92.998,53.745 105.982,53.745 111.761,52.327 C112.569,52.129 113.194,52.999 113.262,53.827 L115.259,66.886 L83.97,66.886 C84.636,62.533 85.302,58.18 85.967,53.827 C86.093,53.006 86.663,52.12 87.468,52.327 L87.468,52.327 Z" id="Fill-33" fill="#FFFFFF" sketch:type="MSShapeGroup"></path>
                <path d="M87.468,52.327 C92.998,53.745 105.982,53.745 111.761,52.327 C112.569,52.129 113.194,52.999 113.262,53.827 L115.259,66.886 L83.97,66.886 C84.636,62.533 85.302,58.18 85.967,53.827 C86.093,53.006 86.663,52.12 87.468,52.327 L87.468,52.327 Z" id="Stroke-34" stroke="#000000" stroke-width="0.981" sketch:type="MSShapeGroup"></path>
                <path d="M121.012,52.327 C126.542,53.745 139.526,53.745 145.305,52.327 C146.112,52.129 146.738,52.999 146.806,53.827 L148.803,66.886 L117.514,66.886 C118.18,62.533 118.846,58.18 119.511,53.827 C119.637,53.006 120.207,52.12 121.012,52.327 L121.012,52.327 Z" id="Fill-35" fill="#FFFFFF" sketch:type="MSShapeGroup"></path>
                <path d="M121.012,52.327 C126.542,53.745 139.526,53.745 145.305,52.327 C146.112,52.129 146.738,52.999 146.806,53.827 L148.803,66.886 L117.514,66.886 C118.18,62.533 118.846,58.18 119.511,53.827 C119.637,53.006 120.207,52.12 121.012,52.327 L121.012,52.327 Z" id="Stroke-36" stroke="#000000" stroke-width="0.981" sketch:type="MSShapeGroup"></path>
                <path d="M154.97,52.327 C160.499,53.745 173.483,53.745 179.263,52.327 C180.07,52.129 180.696,52.999 180.763,53.827 L182.761,66.886 L151.472,66.886 C152.138,62.533 152.803,58.18 153.469,53.827 C153.595,53.006 154.164,52.12 154.97,52.327 L154.97,52.327 Z" id="Fill-37" fill="#FFFFFF" sketch:type="MSShapeGroup"></path>
                <path d="M154.97,52.327 C160.499,53.745 173.483,53.745 179.263,52.327 C180.07,52.129 180.696,52.999 180.763,53.827 L182.761,66.886 L151.472,66.886 C152.138,62.533 152.803,58.18 153.469,53.827 C153.595,53.006 154.164,52.12 154.97,52.327 L154.97,52.327 Z" id="Stroke-38" stroke="#000000" stroke-width="0.981" sketch:type="MSShapeGroup"></path>
                <path d="M188.927,52.327 C194.457,53.745 207.441,53.745 213.221,52.327 C214.028,52.129 214.654,52.999 214.721,53.827 L216.719,66.886 L185.43,66.886 C186.095,62.533 186.761,58.18 187.427,53.827 C187.553,53.006 188.122,52.12 188.927,52.327 L188.927,52.327 Z" id="Fill-39" fill="#FFFFFF" sketch:type="MSShapeGroup"></path>
                <path d="M188.927,52.327 C194.457,53.745 207.441,53.745 213.221,52.327 C214.028,52.129 214.654,52.999 214.721,53.827 L216.719,66.886 L185.43,66.886 C186.095,62.533 186.761,58.18 187.427,53.827 C187.553,53.006 188.122,52.12 188.927,52.327 L188.927,52.327 Z" id="Stroke-40" stroke="#000000" stroke-width="0.981" sketch:type="MSShapeGroup"></path>
                <path d="M222.471,52.327 C228.001,53.745 240.985,53.745 246.765,52.327 C247.572,52.129 248.198,52.999 248.265,53.827 L250.263,66.886 L218.974,66.886 C219.639,62.533 220.305,58.18 220.971,53.827 C221.097,53.006 221.666,52.12 222.471,52.327 L222.471,52.327 Z" id="Fill-41" fill="#FFFFFF" sketch:type="MSShapeGroup"></path>
                <path d="M222.471,52.327 C228.001,53.745 240.985,53.745 246.765,52.327 C247.572,52.129 248.198,52.999 248.265,53.827 L250.263,66.886 L218.974,66.886 C219.639,62.533 220.305,58.18 220.971,53.827 C221.097,53.006 221.666,52.12 222.471,52.327 L222.471,52.327 Z" id="Stroke-42" stroke="#000000" stroke-width="0.981" sketch:type="MSShapeGroup"></path>
                <path d="M41.181,8.556 L41.181,10.04 L41.181,10.086 C41.198,10.464 41.372,10.842 41.645,11.106 L49.386,18.94 L57.081,11.106 C57.36,10.827 57.498,10.433 57.498,10.04 L57.498,8.556 L56.015,8.556 C55.621,8.556 55.228,8.694 54.949,8.973 L49.386,14.629 L43.777,8.973 C43.489,8.661 43.081,8.524 42.665,8.556 L41.181,8.556" id="Fill-43" fill="#000100" sketch:type="MSShapeGroup"></path>
                <path d="M47.856,0.15 L50.823,0.15 L50.823,16.467 L47.856,16.467 L47.856,0.15 Z" id="Fill-44" fill="#000100" sketch:type="MSShapeGroup"></path>
                <path d="M115.21,18.346 L115.21,19.83 C115.21,19.845 115.209,19.861 115.21,19.876 C115.227,20.254 115.401,20.633 115.674,20.896 L123.415,28.73 L131.11,20.896 C131.389,20.617 131.527,20.223 131.527,19.83 L131.527,18.346 L130.043,18.346 C129.65,18.346 129.256,18.485 128.977,18.764 L123.415,24.419 L117.806,18.764 C117.517,18.451 117.11,18.314 116.694,18.346 L115.21,18.346" id="Fill-45" fill="#000100" sketch:type="MSShapeGroup"></path>
                <path d="M121.885,9.941 L124.852,9.941 L124.852,26.258 L121.885,26.258 L121.885,9.941 Z" id="Fill-46" fill="#000100" sketch:type="MSShapeGroup"></path>
                <path d="M216.67,18.346 L216.67,19.83 C216.67,19.845 216.669,19.861 216.67,19.876 C216.686,20.254 216.86,20.633 217.133,20.896 L224.874,28.73 L232.569,20.896 C232.848,20.617 232.986,20.223 232.986,19.83 L232.986,18.346 L231.503,18.346 C231.11,18.346 230.716,18.485 230.437,18.764 L224.874,24.419 L219.266,18.764 C218.977,18.451 218.57,18.314 218.153,18.346 L216.67,18.346" id="Fill-47" fill="#000100" sketch:type="MSShapeGroup"></path>
                <path d="M223.345,9.941 L226.312,9.941 L226.312,26.258 L223.345,26.258 L223.345,9.941 Z" id="Fill-48" fill="#000100" sketch:type="MSShapeGroup"></path>
            </g>
            <rect id="Rectangle-153" stroke="#979797" stroke-width="2" fill="#FFFFFF" sketch:type="MSShapeGroup" x="297" y="357" width="510" height="92"></rect>
            <rect id="Rectangle-153" fill="#FFFFFF" sketch:type="MSShapeGroup" x="183" y="969" width="386" height="104"></rect>
            <g id="layer11" sketch:type="MSLayerGroup" transform="translate(299.999602, 338.000000)" fill="#B4B4B4">
                <path d="M5.507806,-0.00446 C2.47895,-0.00446 -0.00292,2.47459 -0.00292,5.50001 C-0.00292,8.52542 2.47895,11.00447 5.507806,11.00447 C8.536662,11.00447 11.018532,8.52542 11.018532,5.50001 C11.018532,2.47459 8.536662,-0.00446 5.507806,-0.00446 L5.507806,-0.00446 Z M5.507806,2.00447 C7.455163,2.00447 9.007318,3.55486 9.007318,5.50001 C9.007318,7.44515 7.455163,8.99554 5.507806,8.99554 C3.560449,8.99554 2.008294,7.44515 2.008294,5.50001 C2.008294,3.55486 3.560449,2.00447 5.507806,2.00447 L5.507806,2.00447 Z" id="path5254" sketch:type="MSShapeGroup"></path>
                <path d="M8.8125,8 C8.43939059,8.06769005 8.13665583,8.34057348 8.03073409,8.70467946 C7.92481235,9.06878544 8.03392472,9.46147895 8.3125,9.71875 L12.3125,13.71875 C12.5692618,13.9700736 12.9406163,14.0652922 13.2866314,13.9685259 C13.6326465,13.8717595 13.9007333,13.5977153 13.9898724,13.2496573 C14.0790116,12.9015993 13.9756554,12.5324268 13.71875,12.28125 L9.71875,8.28125 C9.48320116,8.04103801 9.14266028,7.93535291 8.8125,8 L8.8125,8 Z" id="path5256" sketch:type="MSShapeGroup"></path>
            </g>
            <path d="M382.722705,351.412622 C382.722705,351.737111 382.452409,352 382.121977,352 L380.828886,352 C380.255205,352 379.736886,351.770867 379.361432,351.4008 C378.985818,351.770867 378.467659,352 377.893818,352 L376.600727,352 C376.270296,352 376,351.737111 376,351.412622 C376,351.088133 376.270296,350.825244 376.600727,350.825244 L377.893818,350.825244 C378.371409,350.825244 378.760386,350.444911 378.760386,349.977933 L378.760386,340.022222 C378.760386,339.555244 378.371409,339.174911 377.893818,339.174911 L376.600727,339.174911 C376.270296,339.174911 376,338.912022 376,338.587533 C375.999841,338.262889 376.270296,338 376.600727,338 L377.893818,338 C378.467659,338 378.985818,338.229133 379.361273,338.5992 C379.736727,338.229133 380.254886,338 380.828727,338 L382.121818,338 C382.45225,338 382.722546,338.262889 382.722546,338.587378 C382.722546,338.911867 382.45225,339.174756 382.121818,339.174756 L380.828727,339.174756 C380.351136,339.174756 379.962159,339.555089 379.962159,340.022067 L379.962159,349.977622 C379.962159,350.4446 380.351136,350.824933 380.828727,350.824933 L382.121818,350.824933 C382.45225,350.825089 382.722705,351.087978 382.722705,351.412622" id="Imported-Layers" fill="#000000" sketch:type="MSShapeGroup"></path>
            <text id="guate360" sketch:type="MSTextLayer" font-family="Lato" font-size="12" font-weight="normal" fill="#6F6F6F">
                <tspan x="318" y="349">guate360</tspan>
            </text>
            <text id="guate360-comida-guat" sketch:type="MSTextLayer" font-family="Lato" font-size="12" font-weight="normal" line-spacing="24" fill="#6F6F6F">
                <tspan x="318" y="373">guate360 comida guatemala</tspan>
                <tspan x="318" y="397">guate360 blog</tspan>
                <tspan x="318" y="421">guate360 videos</tspan>
            </text>
            <text id="www.guate360.com" sketch:type="MSTextLayer" font-family="Lato" font-size="12" font-weight="normal" fill="#6F6F6F">
                <tspan x="182" y="878">www.guate360.com</tspan>
            </text>
            <circle id="Oval-40" fill="#FFFFFF" sketch:type="MSShapeGroup" cx="202.5" cy="930.5" r="23.5"></circle>
            <rect id="Rectangle-163" fill="#FFFFFF" sketch:type="MSShapeGroup" x="493" y="924" width="76" height="14"></rect>
            <g id="Rectangle-163-+-Rectangle-163-+-Rectangle-164" sketch:type="MSLayerGroup" transform="translate(183.000000, 1094.000000)" fill="#FFFFFF">
                <rect id="Rectangle-163" sketch:type="MSShapeGroup" x="0" y="0" width="184.984375" height="10"></rect>
                <rect id="Rectangle-163" sketch:type="MSShapeGroup" x="0" y="23" width="184.984375" height="10"></rect>
                <rect id="Rectangle-164" sketch:type="MSShapeGroup" x="0" y="46" width="184.984375" height="10"></rect>
            </g>
            <g id="Rectangle-163-+-Rectangle-163-+-Rectangle-164" sketch:type="MSLayerGroup" transform="translate(384.000000, 1094.000000)" fill="#FFFFFF">
                <rect id="Rectangle-163" sketch:type="MSShapeGroup" x="0" y="0" width="184.984375" height="10"></rect>
                <rect id="Rectangle-163" sketch:type="MSShapeGroup" x="0" y="23" width="184.984375" height="10"></rect>
                <rect id="Rectangle-164" sketch:type="MSShapeGroup" x="0" y="46" width="184.984375" height="10"></rect>
            </g>
        </g>
    </g>
</svg>